<svg id="Layer_1" data-name="Layer 1" xmlns="http://www.w3.org/2000/svg" viewBox="0 0 1625.9 1539.4"><title>bytePushersLogoWithTextMobileNav</title><polygon points="1592.7 461.4 1427.1 627 809.3 9.3 616.3 202.3 647.4 233.4 809.3 71.5 846.8 109 846.4 109.4 851.3 114.3 851.7 113.9 861.2 123.4 861.2 124.3 869.4 132.4 869.4 131.6 1395.9 658.1 1207.9 846.2 1239 877.3 1623.8 492.5 1592.7 461.4"/><polygon points="811.8 1248.3 225.2 661.7 413.2 473.6 382.1 442.5 -2.8 827.3 28.4 858.5 194 692.8 811.8 1310.6 1004.8 1117.5 973.7 1086.4 811.8 1248.3"/><path d="M505.5,673.8c-8.2,0-10.8-1.3-11.6-2.4s-1.7-5-1.7-17.2.9-16,1.7-17.2,3.4-2.4,11.6-2.4a51.15,51.15,0,0,1,5.6.3v-5.7c-1.7-.1-3.5-.2-5.6-.2-9,0-14.4,1.2-16.4,3.7s-3,8.9-3,19.7c0,12.5.9,19.7,2.7,22.2,2.4,3.2,7.8,4.7,16.7,4.7a47.33,47.33,0,0,0,5.6-.3v-5.6A20.86,20.86,0,0,1,505.5,673.8Z"/><polygon points="927 890.6 927 841.3 918.4 841.3 904.9 855.9 904.6 856.3 908.7 860.2 920.6 847.1 920.6 890.6 927 890.6"/><polygon points="892.1 890.6 892.1 841.3 883.5 841.3 870 855.9 869.7 856.3 873.8 860.2 885.7 847.1 885.7 890.6 892.1 890.6"/><polygon points="555.8 855.9 555.5 856.3 559.6 860.2 571.5 847.1 571.5 890.6 577.9 890.6 577.9 841.3 569.3 841.3 555.8 855.9"/><polygon points="518.2 855.9 517.9 856.3 522 860.2 533.9 847.1 533.9 890.6 540.3 890.6 540.3 841.3 531.8 841.3 518.2 855.9"/><polygon points="658.7 847.1 658.7 890.6 665.1 890.6 665.1 841.3 656.6 841.3 643 855.9 642.7 856.3 646.9 860.2 658.7 847.1"/><path d="M612.1,890.6c8.9,0,14.3-1.5,16.7-4.7,1.8-2.5,2.7-9.2,2.7-20.5,0-11.8-.9-18.8-2.8-21.3s-7.4-3.8-16.6-3.8c-9,0-14.4,1.2-16.4,3.7s-3,8.9-3,19.7c0,12.5.9,19.8,2.7,22.2C597.7,889,603.2,890.6,612.1,890.6Zm-11.6-42.4c.8-1.1,3.4-2.4,11.6-2.4s10.8,1.3,11.5,2.4,1.7,5,1.7,17.2-.9,16-1.7,17.2-3.4,2.4-11.5,2.4-10.8-1.3-11.6-2.4-1.7-5-1.7-17.2S599.7,849.4,600.5,848.2Z"/><path d="M682,844c-2,2.4-3,8.9-3,19.7,0,12.5.9,19.7,2.7,22.2,2.4,3.2,7.8,4.7,16.7,4.7s14.3-1.5,16.7-4.7c1.8-2.5,2.7-9.2,2.7-20.5,0-11.8-.9-18.8-2.9-21.3s-7.4-3.8-16.6-3.8C689.4,840.3,684.1,841.5,682,844Zm28,4.3c.8,1.1,1.7,5,1.7,17.2s-.9,16-1.7,17.2-3.4,2.4-11.6,2.4-10.8-1.3-11.6-2.4c-1.1-1.6-1.7-7.4-1.7-17.2s.6-15.5,1.7-17.2c.8-1.1,3.4-2.4,11.6-2.4s10.8,1.3,11.6,2.4Z"/><path d="M771.2,873.4c.1-2.4.2-5.1.2-8,0-11.8-.9-18.8-2.8-21.3s-7.4-3.8-16.6-3.8c-9,0-14.3,1.2-16.4,3.7s-3,8.9-3,19.7c0,12.5.9,19.7,2.7,22.2a1,1,0,0,0,.5.4l.2.2c2.7,2.7,7.9,4.1,16,4.1,8.9,0,14.3-1.5,16.7-4.7C770,884,770.8,880,771.2,873.4Zm-6.4,3.1c-.3,3.2-.7,5.2-1.3,6-.8,1.1-3.4,2.4-11.5,2.4a35.34,35.34,0,0,1-8.6-.8,5.22,5.22,0,0,1-3-1.6c-1.1-1.6-1.7-7.4-1.7-17.2s.6-15.5,1.7-17.2c.8-1.1,3.4-2.4,11.6-2.4s10.8,1.3,11.5,2.4,1.7,5,1.7,17.2c0,4.6-.1,8.4-.4,11.2Z"/><path d="M699.2,539.8v-3.6c-2.1-.6-4.3-1.2-6.4-1.6v5.2Z"/><polygon points="847.9 490 834 505.1 838.2 509 850 495.9 850 539.3 854.4 539.3 854.4 490 847.9 490"/><rect x="922.8" y="533.3" width="2.9" height="6"/><rect x="953.4" y="533.3" width="6.4" height="6"/><path d="M1102.2,490h-2c.7.4,1.3.7,2,1.1Z"/><path d="M506.5,534.3c-8.2,0-10.8-1.3-11.6-2.4-1.1-1.6-1.7-7.4-1.7-17.2,0-12.1.9-16,1.7-17.1s3.4-2.4,11.6-2.4c1.8,0,3.3.1,4.7.2v-5.6c-1.5-.1-2.9-.2-4.7-.2-9,0-14.4,1.2-16.4,3.7s-3,8.9-3,19.7c0,12.5.9,19.7,2.7,22.2,2.4,3.2,7.8,4.7,16.7,4.7,1.7,0,3.2-.1,4.7-.2v-5.5C509.9,534.2,508.4,534.3,506.5,534.3Z"/><path d="M646.4,539.8c8.9,0,14.3-1.5,16.7-4.7a7.57,7.57,0,0,0,.9-1.8h-8.5a42.49,42.49,0,0,1-18.1,0h-8.5a6.08,6.08,0,0,0,.9,1.8C632,538.3,637.5,539.8,646.4,539.8Z"/><path d="M609.6,535.2a7.57,7.57,0,0,0,.9-1.8H602a42.49,42.49,0,0,1-18.1,0h-4.3v4.3c3,1.5,7.4,2.3,13.3,2.3C601.7,539.8,607.2,538.3,609.6,535.2Z"/><path d="M994.6,539.8c8.9,0,14.3-1.5,16.7-4.7a5.08,5.08,0,0,0,.9-1.8c-1.6,0-3.1-.1-4.7-.1h-3.8a42.49,42.49,0,0,1-18.1,0H977a5.08,5.08,0,0,0,.9,1.8C980.2,538.3,985.7,539.8,994.6,539.8Z"/><path d="M1048.3,539.8c2.1,0,4.1-.1,6.2-.3-5.5-2.4-13.4-4.1-23.3-5.1.1.3.3.5.4.8C1033.9,538.3,1039.4,539.8,1048.3,539.8Z"/><path d="M804.7,775.5a44.42,44.42,0,0,1,6.3.4c2.9.4,4.7,1.1,5.3,2,.8,1.2,1.7,5,1.7,17.2s-.9,16-1.7,17.2c-.6.9-2.4,2-8,2.3-1.1.1-2.3.1-3.6.1-8.2,0-10.8-1.3-11.6-2.4-.9-1.4-1.5-5.7-1.7-12.7a53.38,53.38,0,0,1-5.6,8.4c.5,3.8,1.1,6.3,2.1,7.6,2.4,3.2,7.8,4.7,16.7,4.7a11.48,11.48,0,0,0,1.9-.1h1c7.3-.3,11.8-1.8,13.8-4.5,1.8-2.5,2.7-9.2,2.7-20.5,0-11.8-.9-18.8-2.8-21.3-1.5-1.9-4.8-3-10.3-3.5a60.51,60.51,0,0,0-6.3-.3c-1.2,0-2.2.1-3.2.1a50.54,50.54,0,0,1-1.2,5.6A21.25,21.25,0,0,1,804.7,775.5Z"/><polygon points="504.1 785 503.8 785.4 507.9 789.3 511.2 785.8 511.2 777.4 504.1 785"/><polygon points="507.9 575 507.6 575.4 511.2 578.7 511.2 571.5 507.9 575"/><polygon points="1159.3 574.9 1163.5 578.8 1175.3 565.7 1175.3 609.1 1181.8 609.1 1181.8 559.8 1173.2 559.8 1159.7 574.5 1159.3 574.9"/><path d="M720.1,574.9l4.1,3.9,2-2.2a68.07,68.07,0,0,0-.5-7.8l-5.3,5.8Z"/><path d="M793.1,604.9c.8-1.1,1.4-3.1,1.9-6a99.33,99.33,0,0,0,.8-14.4c0-3.7-.1-7-.3-9.7-.3,12.2-2,23.1-5.1,32.4A7.54,7.54,0,0,0,793.1,604.9Z"/><path d="M619,677.4H590.7c3,1.7,7.6,2.6,14.2,2.6S616.1,679.1,619,677.4Z"/><path d="M936.6,584.5c0-11.8-.9-18.8-2.8-21.3-1.5-2-5.2-3.1-11-3.6v5.6c3.8.5,5.4,1.3,5.9,2.1.8,1.1,1.7,5,1.7,17.1s-.9,16-1.7,17.2c-.5.8-2.1,1.7-5.9,2.1v5.6c5.6-.6,9.3-2,11.1-4.4S936.6,595.8,936.6,584.5Z"/><path d="M1141.4,584.5v4.3c.1,3.5.2,7.1.2,10.8,0,2.7,0,5.3-.1,7.9a9.4,9.4,0,0,0,3.4-2.5c1.8-2.5,2.7-9.2,2.7-20.5,0-11.8-.9-18.8-2.8-21.3-1-1.3-2.8-2.2-5.5-2.8.3,2.6.6,5.2.9,7.9C1140.9,570.5,1141.4,576,1141.4,584.5Z"/><polygon points="465.3 635.9 465.3 679.4 471.8 679.4 471.8 630.1 463.2 630.1 449.4 645.1 453.5 649.1 465.3 635.9"/><rect x="654.2" y="677.4" width="6.4" height="2.1"/><path d="M1138.1,648.6l11.8-13.1V679h6.5V629.7h-8.6l-8.5,9.3c-.4,3.3-.9,6.4-1.4,9.4Z"/><path d="M701.6,679.2c-4.6-.6-9.7-1.1-15.5-1.4a36.19,36.19,0,0,0,11.8,1.6C699.2,679.4,700.4,679.3,701.6,679.2Z"/><path d="M847,671.4c-1.1-1.6-1.7-7.4-1.7-17.2s.6-15.5,1.7-17.2c.6-.9,2.5-1.9,7.5-2.3v-5.6c-4.4.2-7.8.8-9.9,1.9a6.58,6.58,0,0,0-2.3,1.7c-2,2.4-3,8.9-3,19.7,0,12.5.9,19.7,2.7,22.2a9.22,9.22,0,0,0,2.6,2.2c2.3,1.3,5.7,2.1,10,2.4v-5.6C849.5,673.3,847.6,672.3,847,671.4Z"/><polygon points="655.6 713.2 654 714.9 658.2 718.9 670 705.7 670 749.2 676.4 749.2 676.4 699.9 667.9 699.9 655.6 713.2"/><path d="M504.2,743.6c-8.2,0-10.8-1.3-11.6-2.4s-1.7-5-1.7-17.2.9-16,1.7-17.1,3.4-2.4,11.6-2.4a41.22,41.22,0,0,1,7,.5v-5.7a54.65,54.65,0,0,0-7-.3c-9,0-14.4,1.2-16.4,3.7s-3,8.9-3,19.7c0,12.5.9,19.7,2.7,22.2,2.4,3.2,7.8,4.7,16.7,4.7a54.92,54.92,0,0,0,7-.5v-5.6A41.11,41.11,0,0,1,504.2,743.6Z"/><path d="M608.4,744.5c1.8-2.5,2.7-9.2,2.7-20.5,0-4-.1-7.5-.4-10.5-.4-5.6-1.3-9.2-2.5-10.8-2-2.5-7.4-3.8-16.6-3.8a42,42,0,0,0-12.2,1.4v8.3a5.78,5.78,0,0,1,.6-1.7c.8-1.1,3.4-2.4,11.5-2.4s10.8,1.3,11.6,2.4c.4.6,1,2.3,1.3,6.7q.3,4.2.3,10.5c0,12.1-.9,16-1.7,17.2s-3.3,2.4-11.5,2.4-10.8-1.3-11.5-2.4a4.42,4.42,0,0,1-.6-1.6v7.8c2.9,1.1,6.9,1.7,12.2,1.7C600.6,749.2,606,747.7,608.4,744.5Z"/><path d="M809.2,706.9c.8,1.1,1.7,5,1.7,17.1s-.9,16-1.7,17.2c-.6.9-2.4,1.6-5.1,2-.1,1.9-.1,3.8-.2,5.6a2.2,2.2,0,0,0,.8-.1q7.2-1.05,9.6-4.2c1.8-2.5,2.7-9.2,2.7-20.5,0-11.8-.9-18.8-2.8-21.3s-6.8-3.6-14.8-3.7c.5,1.8,1.1,3.7,1.5,5.6C806.5,704.9,808.5,706,809.2,706.9Z"/><path d="M1093.6,748.7h6.4V706.8c-2,.9-4.2,1.8-6.4,2.6Z"/><path d="M1077.6,714.4l4.1,3.9,6.4-7.1c-3.2,1-6.5,1.8-10,2.7l-.2.2Z"/><polygon points="1112.8 714.1 1112.5 714.4 1116.7 718.4 1128.5 705.2 1128.5 748.7 1134.9 748.7 1134.9 699.4 1126.4 699.4 1112.8 714.1"/><path d="M952.8,724c0,12.1-.9,16-1.7,17.2s-3.4,2.4-11.6,2.4-10.8-1.3-11.5-2.4c-1.1-1.6-1.7-7.4-1.7-17.2v-4.5h-3.6v24.7l.1.2c2.4,3.2,7.8,4.7,16.7,4.7s14.3-1.5,16.7-4.7c1.8-2.5,2.7-9.2,2.7-20.5v-4.5h-6.2C952.8,720.9,952.8,722.4,952.8,724Z"/><path d="M1005.7,724c0,12.1-.9,16-1.7,17.2s-3.4,2.4-11.5,2.4-10.8-1.3-11.6-2.4c-1.1-1.6-1.7-7.4-1.7-17.2v-4.5H973v2.7c0,12.5.9,19.8,2.7,22.2,2.4,3.2,7.8,4.7,16.7,4.7s14.3-1.5,16.7-4.7c1.8-2.5,2.7-9.1,2.7-20.5v-4.6l-6.2.1C1005.7,720.9,1005.7,722.4,1005.7,724Z"/><path d="M1060.7,724c0,12.1-.9,16-1.7,17.2s-3.4,2.4-11.6,2.4-10.8-1.3-11.6-2.4c-1.1-1.7-1.7-7.4-1.7-17.2,0-1.9,0-3.5.1-5-2.1.1-4.1.2-6.2.2v3.1c0,12.5.9,19.7,2.7,22.2,2.4,3.2,7.8,4.7,16.7,4.7s14.3-1.5,16.7-4.7c1.8-2.5,2.7-9.1,2.7-20.5,0-2.9-.1-5.6-.2-8l-6.1.9C1060.7,719,1060.7,721.3,1060.7,724Z"/><polygon points="748.8 401.5 748.8 352.2 740.2 352.2 726.7 366.9 726.4 367.2 730.5 371.1 742.4 358 742.4 401.5 748.8 401.5"/><polygon points="597.5 358 597.5 401.5 603.9 401.5 603.9 352.2 595.4 352.2 581.8 366.9 581.5 367.2 585.6 371.1 597.5 358"/><polygon points="837.5 401.5 837.5 352.2 829 352.2 815.4 366.9 815.1 367.2 819.3 371.1 831.1 358 831.1 401.5 837.5 401.5"/><polygon points="871.5 401.5 871.5 352.2 863 352.2 849.5 366.9 849.1 367.2 853.3 371.1 865.1 358 865.1 401.5 871.5 401.5"/><polygon points="933.7 366.9 933.4 367.2 937.5 371.1 949.4 358 949.4 401.5 955.8 401.5 955.8 352.2 947.3 352.2 933.7 366.9"/><polygon points="983.1 358 983.1 401.5 989.5 401.5 989.5 352.2 981 352.2 967.4 366.9 967.1 367.2 971.3 371.1 983.1 358"/><polygon points="1018.3 358 1018.3 401.5 1024.7 401.5 1024.7 352.2 1016.2 352.2 1002.6 366.9 1002.3 367.2 1006.5 371.1 1018.3 358"/><path d="M640,402c8.9,0,14.3-1.5,16.7-4.7,1.8-2.5,2.7-9.2,2.7-20.5,0-11.9-.9-18.8-2.9-21.3s-7.4-3.8-16.6-3.8c-9,0-14.4,1.2-16.4,3.7s-3,8.9-3,19.7c0,12.5.9,19.7,2.7,22.2C625.7,400.5,631.1,402,640,402Zm-11.5-42.3c.8-1.1,3.4-2.4,11.6-2.4s10.8,1.3,11.5,2.4,1.7,5,1.7,17.1-.9,16-1.7,17.2-3.4,2.4-11.5,2.4-10.8-1.3-11.6-2.4c-1.1-1.6-1.7-7.4-1.7-17.2s.5-15.5,1.7-17.1Z"/><path d="M674.7,375.1c0,12.5.9,19.7,2.7,22.2,2.4,3.2,7.8,4.7,16.7,4.7s14.3-1.5,16.7-4.7c1.8-2.5,2.7-9.2,2.7-20.5,0-11.9-.9-18.8-2.9-21.3s-7.4-3.8-16.6-3.8c-9,0-14.3,1.2-16.4,3.7S674.7,364.3,674.7,375.1Zm7.9-15.4c.8-1.1,3.4-2.4,11.5-2.4s10.8,1.3,11.5,2.4,1.7,5,1.7,17.1-.9,16-1.7,17.2-3.3,2.4-11.5,2.4-10.8-1.3-11.5-2.4-1.7-5-1.7-17.2.9-16,1.7-17.1Z"/><path d="M767,355.4c-2,2.4-3,8.9-3,19.7,0,12.5.9,19.7,2.7,22.2,2.4,3.2,7.8,4.7,16.7,4.7s14.3-1.5,16.7-4.7c1.8-2.5,2.7-9.2,2.7-20.5,0-11.9-.9-18.8-2.9-21.3s-7.4-3.8-16.6-3.8C774.4,351.7,769.1,352.9,767,355.4Zm28,4.3c.8,1.1,1.7,5,1.7,17.1s-.9,16-1.7,17.2-3.4,2.4-11.5,2.4-10.8-1.3-11.5-2.4c-1.1-1.6-1.7-7.4-1.7-17.2s.6-15.5,1.7-17.1c.8-1.1,3.4-2.4,11.5-2.4s10.7,1.3,11.5,2.4Z"/><polygon points="878.8 222 878.8 265.5 885.2 265.5 885.2 216.2 876.7 216.2 863.1 230.9 862.8 231.3 867 235.2 878.8 222"/><polygon points="739.3 222 739.3 265.5 745.7 265.5 745.7 216.2 737.1 216.2 723.6 230.9 723.3 231.3 727.4 235.2 739.3 222"/><path d="M781.3,266c8.9,0,14.3-1.5,16.7-4.7,1.8-2.5,2.7-9.2,2.7-20.5,0-11.8-.9-18.8-2.9-21.3s-7.4-3.8-16.6-3.8c-9,0-14.4,1.2-16.4,3.7s-3,8.9-3,19.7c0,12.5.9,19.8,2.7,22.2C767,264.5,772.4,266,781.3,266Zm-11.6-42.3c.8-1.1,3.4-2.4,11.6-2.4s10.8,1.3,11.5,2.4,1.7,5,1.7,17.1-.9,16-1.7,17.2-3.4,2.4-11.5,2.4-10.8-1.3-11.6-2.4c-1.1-1.6-1.7-7.4-1.7-17.2S768.6,225.3,769.7,223.7Z"/><path d="M813.3,239.1c0,12.5.9,19.7,2.7,22.2,2.4,3.2,7.8,4.7,16.7,4.7s14.3-1.5,16.7-4.7c1.8-2.5,2.7-9.2,2.7-20.5,0-11.8-.9-18.8-2.9-21.3s-7.4-3.8-16.6-3.8c-9,0-14.4,1.2-16.4,3.7S813.3,228.3,813.3,239.1Zm7.9-15.4c.8-1.1,3.4-2.4,11.6-2.4s10.8,1.3,11.5,2.4,1.7,5,1.7,17.1-.9,16-1.7,17.2-3.4,2.4-11.5,2.4-10.8-1.3-11.6-2.4-1.7-5-1.7-17.2S820.4,224.8,821.2,223.7Z"/><path d="M810.2,205.9c8.9,0,14.3-1.5,16.7-4.7,1.8-2.5,2.7-9.2,2.7-20.5,0-11.9-.9-18.8-2.9-21.3s-7.4-3.8-16.6-3.8c-9,0-14.4,1.2-16.4,3.7s-3,8.9-3,19.7c0,12.5.9,19.8,2.7,22.2C795.9,204.4,801.3,205.9,810.2,205.9Zm-11.5-42.3c.8-1.1,3.4-2.4,11.6-2.4s10.8,1.3,11.5,2.4,1.7,5,1.7,17.1-.9,16.1-1.7,17.2-3.4,2.4-11.5,2.4-10.8-1.3-11.6-2.4-1.7-5-1.7-17.2S797.9,164.7,798.7,163.6Z"/><path d="M885.7,375.1c0,12.5.9,19.7,2.7,22.2,2.4,3.2,7.8,4.7,16.7,4.7s14.4-1.5,16.7-4.7c1.8-2.5,2.7-9.2,2.7-20.5,0-11.9-.9-18.8-2.9-21.3s-7.4-3.8-16.6-3.8c-9,0-14.3,1.2-16.4,3.7S885.7,364.3,885.7,375.1Zm7.9-15.4c.8-1.1,3.4-2.4,11.5-2.4s10.8,1.3,11.6,2.4,1.7,5,1.7,17.1-.9,16-1.7,17.2-3.4,2.4-11.6,2.4-10.8-1.3-11.5-2.4-1.7-5-1.7-17.2.9-16,1.7-17.1Z"/><polygon points="714.7 289.7 714.7 333.2 721.1 333.2 721.1 283.9 712.6 283.9 699 298.5 698.7 298.9 702.8 302.8 714.7 289.7"/><polygon points="679.8 289.7 679.8 333.2 686.2 333.2 686.2 283.9 677.7 283.9 664.1 298.5 663.8 298.9 667.9 302.8 679.8 289.7"/><polygon points="809.2 333.2 809.2 283.9 800.7 283.9 787.1 298.5 786.8 298.9 791 302.8 802.8 289.7 802.8 333.2 809.2 333.2"/><polygon points="875.2 298.9 879.4 302.8 891.2 289.7 891.2 333.2 897.7 333.2 897.7 283.9 889.1 283.9 875.6 298.5 875.2 298.9"/><path d="M735.7,306.8c0,12.5.9,19.7,2.7,22.2,2.4,3.2,7.8,4.7,16.7,4.7s14.3-1.5,16.7-4.7c1.8-2.5,2.7-9.2,2.7-20.5,0-11.8-.9-18.8-2.9-21.3s-7.4-3.8-16.5-3.8-14.4,1.2-16.4,3.7S735.7,296,735.7,306.8Zm7.9-15.4c.8-1.1,3.4-2.4,11.6-2.4s10.8,1.3,11.5,2.4,1.7,5,1.7,17.1-.9,16-1.7,17.2-3.3,2.4-11.5,2.4-10.8-1.3-11.6-2.4-1.7-5-1.7-17.2S742.8,292.5,743.6,291.4Z"/><path d="M827,287.1c-2,2.4-3,8.9-3,19.7,0,12.5.9,19.8,2.7,22.2,2.4,3.2,7.8,4.7,16.7,4.7s14.3-1.5,16.7-4.7c1.8-2.5,2.7-9.1,2.7-20.5,0-11.8-.9-18.8-2.9-21.3s-7.4-3.8-16.6-3.8C834.4,283.4,829.1,284.6,827,287.1Zm28,4.3c.8,1.1,1.7,5,1.7,17.1s-.9,16-1.7,17.2-3.4,2.4-11.6,2.4-10.8-1.3-11.5-2.4-1.7-5-1.7-17.2.9-16,1.7-17.1,3.3-2.4,11.5-2.4,10.8,1.3,11.6,2.4Z"/><path d="M931.5,333.7c8.9,0,14.3-1.5,16.7-4.7,1.8-2.5,2.7-9.2,2.7-20.5,0-11.8-.9-18.8-2.9-21.3s-7.4-3.8-16.6-3.8c-9,0-14.3,1.2-16.4,3.7s-3,8.9-3,19.7c0,12.5.9,19.7,2.7,22.2C917.2,332.1,922.8,333.7,931.5,333.7ZM920,291.4c.8-1.1,3.4-2.4,11.5-2.4s10.8,1.3,11.5,2.4,1.7,5,1.7,17.1-.9,16-1.7,17.2-3.3,2.4-11.5,2.4-10.8-1.3-11.5-2.4-1.7-5-1.7-17.2S919.2,292.5,920,291.4Z"/><polygon points="836.4 855.9 836.1 856.3 840.3 860.2 852.1 847.1 852.1 890.6 858.5 890.6 858.5 841.3 850 841.3 836.4 855.9"/><polygon points="1015.1 890.6 1015.1 841.3 1006.5 841.3 993 855.9 992.7 856.3 996.8 860.2 1008.7 847.1 1008.7 890.6 1015.1 890.6"/><polygon points="1081.4 855.9 1081.1 856.3 1085.2 860.2 1097.1 847.1 1097.1 890.6 1103.5 890.6 1103.5 841.3 1095 841.3 1081.4 855.9"/><path d="M941.6,863.7c0,12.5.9,19.7,2.7,22.2,2.4,3.2,7.8,4.7,16.7,4.7s14.4-1.5,16.7-4.7c1.8-2.5,2.7-9.2,2.7-20.5,0-11.8-.9-18.8-2.9-21.3s-7.4-3.8-16.6-3.8c-9,0-14.3,1.2-16.4,3.7S941.6,852.8,941.6,863.7Zm7.8-15.5c.8-1.1,3.4-2.4,11.5-2.4s10.8,1.3,11.6,2.4,1.7,5,1.7,17.2-.9,16-1.7,17.2-3.4,2.4-11.6,2.4-10.8-1.3-11.5-2.4c-1.1-1.6-1.7-7.4-1.7-17.2s.6-15.5,1.7-17.2Z"/><path d="M1049.3,840.3c-9,0-14.3,1.2-16.4,3.7s-3,8.9-3,19.7c0,12.5.9,19.8,2.7,22.2,2.4,3.2,7.8,4.7,16.7,4.7s14.4-1.5,16.7-4.7c1.8-2.5,2.7-9.2,2.7-20.5,0-11.8-.9-18.8-2.9-21.3S1058.5,840.3,1049.3,840.3Zm11.5,42.3c-.8,1.1-3.4,2.4-11.6,2.4s-10.8-1.3-11.6-2.4-1.7-5-1.7-17.2.9-16,1.7-17.2,3.4-2.4,11.6-2.4,10.8,1.3,11.6,2.4,1.7,5,1.7,17.2-.9,16-1.7,17.2Z"/><path d="M868.7,1048.3c-9,0-14.3,1.2-16.4,3.7s-3,8.9-3,19.7c0,12.5.9,19.7,2.7,22.2,2.4,3.2,7.8,4.7,16.7,4.7s14.4-1.5,16.7-4.7c1.8-2.5,2.7-9.2,2.7-20.5,0-11.8-.9-18.8-2.9-21.3S877.9,1048.3,868.7,1048.3Zm11.5,42.3c-.8,1.1-3.3,2.4-11.5,2.4s-10.8-1.3-11.5-2.4-1.7-5-1.7-17.2.9-16,1.7-17.1,3.4-2.4,11.5-2.4,10.8,1.3,11.6,2.4,1.7,5,1.7,17.1c-.1,9.8-.6,15.6-1.8,17.2Z"/><polygon points="581 426.6 581 470.1 587.4 470.1 587.4 420.8 578.9 420.8 565.3 435.4 565 435.8 569.2 439.7 581 426.6"/><polygon points="599.3 435.3 603.5 439.2 615.3 426.1 615.3 469.6 621.7 469.6 621.7 420.3 613.2 420.3 599.7 434.9 599.3 435.3"/><polygon points="851.5 469.6 851.5 420.3 842.9 420.3 829.4 434.9 829.1 435.3 833.2 439.2 845.1 426.1 845.1 469.6 851.5 469.6"/><polygon points="938.7 469.6 938.7 420.3 930.2 420.3 916.7 434.9 916.3 435.3 920.5 439.2 932.3 426.1 932.3 469.6 938.7 469.6"/><path d="M673.5,423.5c-2,2.4-3,8.9-3,19.7,0,12.5.9,19.7,2.7,22.2,2.4,3.2,7.8,4.7,16.7,4.7s14.3-1.5,16.7-4.7c1.8-2.5,2.7-9.2,2.7-20.5,0-11.9-.9-18.8-2.9-21.3s-7.4-3.8-16.6-3.8C680.9,419.8,675.6,421,673.5,423.5Zm28,4.2c.8,1.1,1.7,5,1.7,17.1s-.9,16-1.7,17.2-3.4,2.4-11.5,2.4-10.8-1.3-11.6-2.4c-1.1-1.6-1.7-7.4-1.7-17.2s.6-15.5,1.7-17.1c.8-1.1,3.4-2.4,11.6-2.4s10.7,1.3,11.5,2.4Z"/><path d="M533.2,470.1c8.9,0,14.3-1.5,16.7-4.7,1.8-2.5,2.7-9.2,2.7-20.5,0-11.9-1-18.8-2.9-21.3s-7.4-3.8-16.6-3.8c-9,0-14.3,1.2-16.4,3.7s-3,8.9-3,19.7c0,12.5.9,19.7,2.7,22.2C518.9,468.5,524.3,470.1,533.2,470.1Zm-11.5-42.4c.8-1.1,3.4-2.4,11.5-2.4s10.8,1.3,11.6,2.4,1.7,5,1.7,17.1-.9,16-1.7,17.2-3.4,2.4-11.6,2.4-10.8-1.3-11.5-2.4c-1.1-1.6-1.7-7.4-1.7-17.2S520.5,429.4,521.7,427.7Z"/><path d="M885.7,470.1c8.9,0,14.3-1.5,16.7-4.7,1.8-2.5,2.7-9.2,2.7-20.5,0-11.9-.9-18.8-2.8-21.3s-7.4-3.8-16.6-3.8c-9,0-14.4,1.2-16.4,3.7s-3,8.9-3,19.7c0,12.5.9,19.7,2.7,22.2C871.4,468.5,876.8,470.1,885.7,470.1Zm-11.6-42.4c.8-1.1,3.4-2.4,11.6-2.4s10.8,1.3,11.5,2.4,1.7,5,1.7,17.1-.9,16-1.7,17.2-3.4,2.4-11.5,2.4-10.8-1.3-11.6-2.4-1.7-5.1-1.7-17.2S873.4,428.9,874.1,427.7Z"/><path d="M972,419.8c-9,0-14.4,1.2-16.4,3.7s-3,8.9-3,19.7c0,12.5.9,19.7,2.7,22.2,2.4,3.2,7.8,4.7,16.7,4.7s14.3-1.5,16.7-4.7c1.8-2.5,2.7-9.1,2.7-20.5,0-11.9-.9-18.8-2.9-21.3S981.2,419.8,972,419.8Zm11.6,42.3c-.8,1.1-3.4,2.4-11.6,2.4s-10.8-1.3-11.6-2.4c-1.1-1.6-1.7-7.4-1.7-17.2s.6-15.5,1.7-17.1c.8-1.1,3.4-2.4,11.6-2.4s10.8,1.3,11.6,2.4,1.7,5,1.7,17.1S984.4,460.9,983.6,462.1Z"/><path d="M796.7,470.1c8.9,0,14.3-1.5,16.7-4.7,1.8-2.5,2.7-9.2,2.7-20.5,0-11.9-.9-18.8-2.9-21.3s-7.4-3.8-16.6-3.8c-9,0-14.3,1.2-16.4,3.7s-3,8.9-3,19.7c0,12.5.9,19.7,2.7,22.2C782.3,468.5,787.8,470.1,796.7,470.1Zm-11.6-42.4c.8-1.1,3.4-2.4,11.6-2.4s10.8,1.3,11.5,2.4c1.1,1.6,1.7,7.4,1.7,17.1s-.6,15.5-1.7,17.2c-.8,1.1-3.4,2.4-11.5,2.4s-10.8-1.3-11.6-2.4-1.7-5.1-1.7-17.2,1-15.9,1.7-17.1Z"/><polygon points="655.5 469.6 655.5 420.3 646.9 420.3 633.4 434.9 633 435.3 637.2 439.2 649 426.1 649 469.6 655.5 469.6"/><path d="M726.4,465.4c2.4,3.2,7.8,4.7,16.7,4.7s14.4-1.5,16.7-4.7c1.8-2.5,2.7-9.2,2.7-20.5,0-11.9-.9-18.8-2.9-21.3s-7.4-3.8-16.6-3.8c-9,0-14.3,1.2-16.4,3.7s-3,8.9-3,19.7C723.7,455.6,724.6,462.9,726.4,465.4Zm5.2-37.7c.8-1.1,3.4-2.4,11.5-2.4s10.8,1.3,11.6,2.4,1.7,5,1.7,17.1-.9,16-1.7,17.2-3.3,2.4-11.5,2.4-10.8-1.3-11.5-2.4-1.7-5-1.7-17.2S730.8,428.9,731.6,427.7Z"/><path d="M1006.1,443.1c0,12.5.9,19.7,2.7,22.2,2.4,3.2,7.8,4.7,16.7,4.7s14.3-1.5,16.7-4.7c1.8-2.5,2.7-9.2,2.7-20.5,0-11.9-.9-18.8-2.8-21.3s-7.4-3.8-16.6-3.8c-9,0-14.4,1.2-16.4,3.7S1006.1,432.3,1006.1,443.1Zm7.9-15.4c.8-1.1,3.4-2.4,11.6-2.4s10.8,1.3,11.6,2.4,1.7,5,1.7,17.1-.9,16-1.7,17.2-3.4,2.4-11.6,2.4-10.8-1.3-11.6-2.4c-1.1-1.6-1.7-7.4-1.7-17.2S1012.9,429.4,1014,427.7Z"/><path d="M827.9,979.1c-9,0-14.4,1.2-16.4,3.7s-3,8.9-3,19.7c0,12.5.9,19.7,2.7,22.2,2.4,3.2,7.8,4.7,16.7,4.7s14.3-1.5,16.7-4.7c1.8-2.5,2.7-9.2,2.7-20.5,0-11.8-.9-18.8-2.9-21.3S837.1,979.1,827.9,979.1Zm11.6,42.3c-.8,1.1-3.3,2.4-11.5,2.4s-10.8-1.3-11.5-2.4-1.7-5-1.7-17.2.9-16,1.7-17.1,3.4-2.4,11.5-2.4,10.8,1.3,11.5,2.4,1.7,5,1.7,17.1-1,16.1-1.7,17.2Z"/><path d="M934.7,979.1c-9,0-14.3,1.2-16.4,3.7s-3,8.9-3,19.7c0,12.5.9,19.7,2.7,22.2,2.4,3.2,7.8,4.7,16.7,4.7s14.3-1.5,16.7-4.7c1.8-2.5,2.7-9.2,2.7-20.5,0-11.8-.9-18.8-2.9-21.3S943.9,979.1,934.7,979.1Zm11.5,42.3c-.8,1.1-3.4,2.4-11.5,2.4s-10.8-1.3-11.5-2.4-1.7-5-1.7-17.2.9-16,1.7-17.1,3.4-2.4,11.5-2.4,10.8,1.3,11.5,2.4,1.7,5,1.7,17.1-.9,16.1-1.7,17.2Z"/><path d="M881.1,979.1c-9,0-14.3,1.2-16.4,3.7s-3,8.9-3,19.7c0,12.5.9,19.7,2.7,22.2,2.4,3.2,7.8,4.7,16.7,4.7s14.4-1.5,16.7-4.7c1.8-2.5,2.7-9.2,2.7-20.5,0-11.8-.9-18.8-2.9-21.3S890.4,979.1,881.1,979.1Zm11.6,42.3c-.8,1.1-3.4,2.4-11.5,2.4s-10.8-1.3-11.5-2.4-1.7-5-1.7-17.2.9-16,1.7-17.1,3.4-2.4,11.5-2.4,10.8,1.3,11.5,2.4,1.7,5,1.7,17.1-.9,16.1-1.7,17.2Z"/><path d="M1079.7,470.1c8.9,0,14.3-1.5,16.7-4.7,1.8-2.5,2.7-9.2,2.7-20.5,0-11.9-.9-18.8-2.8-21.3s-7.4-3.8-16.6-3.8c-9,0-14.4,1.2-16.4,3.7s-3,8.9-3,19.7c0,12.5.9,19.7,2.7,22.2C1065.3,468.5,1070.8,470.1,1079.7,470.1Zm-11.6-42.4c.8-1.1,3.4-2.4,11.6-2.4s10.8,1.3,11.6,2.4,1.7,5,1.7,17.1-.9,16-1.7,17.2-3.4,2.4-11.6,2.4c-6.6,0-10.5-.8-11.6-2.4-.8-1.1-1.7-5-1.7-17.2S1067.4,428.9,1068.1,427.7Z"/><polygon points="815.9 495.9 815.9 539.3 822.3 539.3 822.3 490 813.7 490 800.2 504.7 799.9 505.1 804 509 815.9 495.9"/><polygon points="604.6 770.9 597.7 778.4 605.2 778.4 606.7 776.7 606.7 778.4 613.2 778.4 613.2 770.9 604.6 770.9"/><path d="M692.9,770.4l-6.8,7.3c2.8-.1,5.4-.3,7.9-.5l1-1.1v1c2.3-.2,4.4-.4,6.4-.7v-6.1Z"/><polygon points="1047.5 785 1047.2 785.4 1051.3 789.3 1063.2 776.2 1063.2 819.7 1069.6 819.7 1069.6 770.4 1061.1 770.4 1047.5 785"/><polygon points="978.9 819.7 978.9 770.4 970.4 770.4 956.9 785 956.5 785.4 960.7 789.3 972.5 776.2 972.5 819.7 978.9 819.7"/><polygon points="847.8 770.4 834.3 785 834 785.4 838.1 789.3 849.9 776.2 849.9 819.7 854.4 819.7 854.4 770.4 847.8 770.4"/><path d="M469.8,769.4c-9,0-14.4,1.2-16.4,3.7s-3,8.9-3,19.7c0,12.5.9,19.7,2.7,22.2,2.4,3.2,7.8,4.7,16.7,4.7s14.4-1.5,16.7-4.7c1.8-2.5,2.7-9.2,2.7-20.5,0-11.8-.9-18.8-2.9-21.3S479,769.4,469.8,769.4Zm11.6,42.3c-.8,1.1-3.4,2.4-11.5,2.4s-10.8-1.3-11.5-2.4c-1.1-1.7-1.7-7.4-1.7-17.2,0-12.1.9-16,1.7-17.1s3.4-2.4,11.5-2.4,10.8,1.3,11.5,2.4,1.7,5,1.7,17.1S482.1,810.5,481.4,811.7Z"/><path d="M646.7,769.9c-9,0-14.3,1.2-16.4,3.7a10.56,10.56,0,0,0-1.9,4.8h6.5a2.19,2.19,0,0,1,.3-.5c.8-1.1,3.4-2.4,11.6-2.4s10.8,1.3,11.5,2.4a.76.76,0,0,1,.2.5l6.5-.1a10.77,10.77,0,0,0-1.7-4.5C661.4,771.1,655.9,769.9,646.7,769.9Z"/><path d="M1030,815.5c1.8-2.5,2.7-9.2,2.7-20.5,0-11.8-.9-18.8-2.8-21.3s-7.4-3.8-16.6-3.8c-9,0-14.3,1.2-16.4,3.7s-3,8.9-3,19.7c0,12.5.9,19.7,2.7,22.2,2.4,3.2,7.8,4.7,16.7,4.7S1027.6,818.6,1030,815.5Zm-28.3-3.3c-1.1-1.7-1.7-7.4-1.7-17.2s.6-15.5,1.7-17.2c.8-1.1,3.4-2.4,11.6-2.4s10.8,1.3,11.6,2.4c1.1,1.7,1.7,7.4,1.7,17.2s-.6,15.5-1.7,17.2c-.8,1.1-3.4,2.4-11.6,2.4s-10.8-1.3-11.6-2.4Z"/><polygon points="1135.9 785 1135.6 785.4 1139.7 789.3 1151.6 776.2 1151.6 819.7 1158 819.7 1158 770.4 1149.5 770.4 1135.9 785"/><path d="M1104.1,769.9c-9,0-14.4,1.2-16.4,3.7s-3,8.9-3,19.7c0,12.5.9,19.7,2.7,22.2,2.4,3.2,7.8,4.7,16.7,4.7s14.3-1.5,16.7-4.7c1.8-2.5,2.7-9.2,2.7-20.5,0-11.8-.9-18.8-2.9-21.3S1113.3,769.9,1104.1,769.9Zm11.5,42.3c-.8,1.1-3.4,2.4-11.6,2.4s-10.8-1.3-11.6-2.4-1.7-5-1.7-17.2.9-16,1.7-17.2,3.4-2.4,11.6-2.4,10.8,1.3,11.6,2.4,1.7,5,1.7,17.2S1116.4,811,1115.6,812.2Z"/><polygon points="613.6 566.2 613.6 609.6 620 609.6 620 560.3 611.4 560.3 597.9 575 597.6 575.4 601.7 579.3 613.6 566.2"/><polygon points="647.9 566.2 647.9 609.6 654.3 609.6 654.3 560.3 645.7 560.3 632.2 575 631.9 575.4 636 579.3 647.9 566.2"/><polygon points="434.9 565.7 434.9 609.1 441.3 609.1 441.3 559.8 432.7 559.8 419.2 574.5 418.9 574.9 423 578.8 434.9 565.7"/><polygon points="400.5 565.7 400.5 609.1 406.9 609.1 406.9 559.8 398.4 559.8 384.9 574.5 384.5 574.9 388.7 578.8 400.5 565.7"/><polygon points="830.4 609.1 830.4 559.8 821.8 559.8 808.3 574.5 808 574.9 812.1 578.8 824 565.7 824 609.1 830.4 609.1"/><polygon points="949 574.5 948.6 574.9 952.8 578.8 964.6 565.7 964.6 609.1 971.1 609.1 971.1 559.8 962.5 559.8 949 574.5"/><polygon points="983.9 574.5 983.5 574.9 987.7 578.8 999.5 565.7 999.5 609.1 1006 609.1 1006 559.8 997.4 559.8 983.9 574.5"/><path d="M1059.4,584.5c0-11.8-.9-18.8-2.9-21.3s-7.4-3.8-16.6-3.8c-9,0-14.4,1.2-16.4,3.7s-3,8.9-3,19.7c0,12.5.9,19.7,2.7,22.2,2.4,3.2,7.8,4.7,16.7,4.7s14.3-1.5,16.7-4.7C1058.5,602.5,1059.4,595.8,1059.4,584.5Zm-7.9,17.1c-.8,1.1-3.4,2.4-11.6,2.4s-10.8-1.3-11.6-2.4-1.7-5-1.7-17.2.9-16,1.7-17.1,3.4-2.4,11.6-2.4,10.8,1.3,11.6,2.4c1.1,1.7,1.7,7.4,1.7,17.1s-.5,15.6-1.7,17.2Z"/><path d="M1215.6,609.6c8.9,0,14.3-1.5,16.7-4.7,1.8-2.5,2.7-9.2,2.7-20.5,0-11.8-.9-18.8-2.8-21.3s-7.4-3.8-16.6-3.8c-9,0-14.4,1.2-16.4,3.7s-3,8.9-3,19.7c0,12.5.9,19.7,2.7,22.2C1201.3,608.1,1206.8,609.6,1215.6,609.6Zm-11.5-42.3c.8-1.1,3.4-2.4,11.6-2.4s10.8,1.3,11.6,2.4,1.7,5,1.7,17.1-.9,16-1.7,17.2-3.4,2.4-11.6,2.4-10.8-1.3-11.6-2.4c-1.1-1.6-1.7-7.4-1.7-17.2S1203,569,1204.1,567.3Z"/><polygon points="433 679.4 439.4 679.4 439.4 630.1 430.8 630.1 417.3 644.8 417 645.1 421.1 649.1 433 635.9 433 679.4"/><polygon points="942.8 926.3 942.5 926.7 946.6 930.6 958.5 917.5 958.5 960.9 964.9 960.9 964.9 911.6 956.3 911.6 942.8 926.3"/><polygon points="977.1 926.3 976.8 926.7 980.9 930.6 992.8 917.5 992.8 960.9 999.2 960.9 999.2 911.6 990.6 911.6 977.1 926.3"/><polygon points="1011.7 926.3 1011.4 926.7 1015.5 930.6 1027.4 917.5 1027.4 960.9 1033.8 960.9 1033.8 911.6 1025.2 911.6 1011.7 926.3"/><polygon points="984.8 629.6 971.3 644.3 971 644.7 975.1 648.6 987 635.4 987 662.1 993.4 662.1 993.4 629.6 984.8 629.6"/><polygon points="1222.5 644.3 1222.2 644.7 1226.3 648.6 1238.2 635.4 1238.2 678.9 1244.6 678.9 1244.6 629.6 1236.1 629.6 1222.5 644.3"/><path d="M332.7,629.1c-9,0-14.4,1.2-16.4,3.7s-3,8.9-3,19.7c0,12.5.9,19.7,2.7,22.2,2.4,3.2,7.8,4.7,16.7,4.7s14.4-1.5,16.7-4.7c1.8-2.5,2.7-9.2,2.7-20.5,0-11.8-.9-18.8-2.9-21.3S341.9,629.1,332.7,629.1Zm11.5,42.3c-.8,1.1-3.4,2.4-11.6,2.4s-10.8-1.3-11.5-2.4-1.7-5-1.7-17.2.9-16,1.7-17.2,3.4-2.4,11.5-2.4,10.8,1.3,11.6,2.4,1.7,5,1.7,17.2S345,670.3,344.2,671.4Z"/><path d="M403.4,674.7c1.8-2.5,2.7-9.2,2.7-20.5,0-11.8-1-18.8-2.9-21.3s-7.4-3.8-16.6-3.8c-9,0-14.4,1.2-16.4,3.7s-3,8.9-3,19.7c0,12.5.9,19.7,2.7,22.2,2.4,3.2,7.8,4.7,16.7,4.7S401,677.9,403.4,674.7Zm-28.3-3.3c-.8-1.1-1.7-5-1.7-17.2s.9-16,1.7-17.2,3.4-2.4,11.5-2.4,10.7,1.3,11.5,2.4,1.7,5,1.7,17.2-.9,16-1.7,17.2-3.4,2.4-11.5,2.4-10.8-1.3-11.5-2.4Z"/><path d="M803.7,679.4c8.9,0,14.3-1.5,16.7-4.7,1.8-2.5,2.7-9.2,2.7-20.5,0-11.8-.9-18.8-2.8-21.3s-7.4-3.8-16.6-3.8c-9,0-14.4,1.2-16.4,3.7s-3,8.9-3,19.7c0,12.1.8,19.3,2.6,21.9l.4.5C789.7,677.9,795.1,679.4,803.7,679.4Zm-11.5-42.3c.8-1.1,3.4-2.4,11.6-2.4s10.8,1.3,11.5,2.4,1.7,5,1.7,17.2-.9,16-1.7,17.2-3.4,2.4-11.5,2.4-10.8-1.3-11.6-2.4-1.7-5-1.7-17.2S791.4,638.3,792.2,637.1Z"/><path d="M1025.2,629.6l-13.5,14.7-.3.3,4.1,3.9,11.9-13.1v25.4c2.2-.2,4.4-.5,6.4-.8V629.5h-8.6Z"/><path d="M958.9,632.9c-2-2.5-7.4-3.8-16.6-3.8-9,0-14.4,1.2-16.4,3.7s-3,8.9-3,19.7c0,3.6.1,6.8.3,9.5h6.1c-.1-2.2-.2-4.8-.2-7.8,0-9.7.6-15.5,1.7-17.2.8-1.1,3.4-2.4,11.6-2.4s10.8,1.3,11.6,2.4,1.7,5,1.7,17.2c0,3.1-.1,5.7-.2,7.8h6.2c.1-2.3.2-4.9.2-7.8C961.8,642.4,960.8,635.4,958.9,632.9Z"/><path d="M1191.1,629.1c-9,0-14.4,1.2-16.4,3.7s-3,8.9-3,19.7c0,12.5.9,19.7,2.7,22.2,2.4,3.2,7.8,4.7,16.7,4.7s14.3-1.5,16.7-4.7c1.8-2.5,2.7-9.2,2.7-20.5,0-11.8-.9-18.8-2.9-21.3S1200.3,629.1,1191.1,629.1Zm11.6,42.3c-.8,1.1-3.4,2.4-11.6,2.4s-10.8-1.3-11.6-2.4c-1.1-1.7-1.7-7.4-1.7-17.2s.6-15.5,1.7-17.2c.8-1.1,3.4-2.4,11.6-2.4s10.8,1.3,11.6,2.4,1.7,5,1.7,17.2-.9,16.1-1.7,17.2Z"/><path d="M1296.2,632.9c-2-2.5-7.4-3.8-16.6-3.8-9,0-14.4,1.2-16.4,3.7s-3,8.9-3,19.7c0,12.5.9,19.7,2.7,22.2,2.4,3.2,7.8,4.7,16.7,4.7s14.3-1.5,16.7-4.7c1.8-2.5,2.7-9.2,2.7-20.5C1299.1,642.4,1298.2,635.4,1296.2,632.9Zm-5,38.5c-.8,1.1-3.4,2.4-11.6,2.4s-10.8-1.3-11.6-2.4c-1.1-1.7-1.7-7.4-1.7-17.2s.6-15.5,1.7-17.2c.8-1.1,3.4-2.4,11.6-2.4s10.8,1.3,11.6,2.4,1.7,5,1.7,17.2-.9,16.1-1.7,17.2Z"/><polygon points="734.6 1029.4 741.1 1029.4 741.1 980.1 732.5 980.1 719 994.8 718.6 995.1 722.8 999 734.6 985.9 734.6 1029.4"/><path d="M687.6,979.1c-9,0-14.4,1.2-16.4,3.7s-3,8.9-3,19.7c0,12.5.9,19.7,2.7,22.2,2.4,3.2,7.8,4.7,16.7,4.7s14.3-1.5,16.7-4.7c1.8-2.5,2.7-9.2,2.7-20.5,0-11.8-.9-18.8-2.8-21.3S696.7,979.1,687.6,979.1Zm11.5,42.3c-.8,1.1-3.4,2.4-11.5,2.4s-10.8-1.3-11.6-2.4c-1.1-1.6-1.7-7.4-1.7-17.2s.6-15.5,1.7-17.1c.8-1.1,3.4-2.4,11.6-2.4s10.8,1.3,11.5,2.4,1.7,5,1.7,17.1-.9,16.1-1.7,17.2Z"/><path d="M795.2,1004.2c0-11.8-.9-18.8-2.9-21.3s-7.4-3.8-16.5-3.8-14.4,1.2-16.4,3.7-3,8.9-3,19.7c0,12.5.9,19.7,2.7,22.2,2.4,3.2,7.8,4.7,16.7,4.7s14.3-1.5,16.7-4.7C794.4,1022.2,795.2,1015.5,795.2,1004.2Zm-7.8,17.2c-.8,1.1-3.4,2.4-11.5,2.4s-10.8-1.3-11.6-2.4c-1.1-1.6-1.7-7.4-1.7-17.2s.6-15.5,1.7-17.1c.8-1.1,3.4-2.4,11.6-2.4s10.8,1.3,11.5,2.4,1.7,5,1.7,17.1S788.1,1020.3,787.4,1021.4Z"/><polygon points="755.5 960.9 755.5 911.6 746.9 911.6 733.4 926.3 733.1 926.7 737.2 930.6 749 917.5 749 960.9 755.5 960.9"/><polygon points="790.1 960.9 790.1 911.6 781.5 911.6 768 926.3 767.7 926.7 771.8 930.6 783.6 917.5 783.6 960.9 790.1 960.9"/><polygon points="855.9 926.7 860.1 930.6 871.9 917.5 871.9 960.9 878.3 960.9 878.3 911.6 869.8 911.6 856.2 926.3 855.9 926.7"/><polygon points="645.4 926.3 645.1 926.7 649.2 930.6 661.1 917.5 661.1 960.9 667.5 960.9 667.5 911.6 658.9 911.6 645.4 926.3"/><path d="M613.7,910.7c-9,0-14.4,1.2-16.4,3.7s-3,8.9-3,19.7c0,12.5.9,19.7,2.7,22.2,2.4,3.2,7.8,4.7,16.7,4.7s14.3-1.5,16.7-4.7c1.8-2.5,2.7-9.2,2.7-20.5,0-11.8-.9-18.8-2.9-21.3S622.9,910.7,613.7,910.7ZM625.2,953c-.8,1.1-3.4,2.4-11.5,2.4s-10.8-1.3-11.6-2.4-1.7-5-1.7-17.2.9-16,1.7-17.1,3.4-2.4,11.6-2.4,10.8,1.3,11.5,2.4,1.7,5,1.7,17.2S626,951.8,625.2,953Z"/><path d="M718.4,914.4c-2-2.5-7.4-3.8-16.6-3.8-9,0-14.4,1.2-16.4,3.7s-3,8.9-3,19.7c0,12.5.9,19.7,2.7,22.2,2.4,3.2,7.8,4.7,16.7,4.7s14.3-1.5,16.7-4.7c1.8-2.5,2.7-9.2,2.7-20.5C721.2,923.9,720.3,916.9,718.4,914.4Zm-5,38.6c-.8,1.1-3.4,2.4-11.5,2.4s-10.8-1.3-11.6-2.4c-1.1-1.7-1.7-7.4-1.7-17.2s.6-15.5,1.7-17.1c.8-1.1,3.4-2.4,11.6-2.4s10.8,1.3,11.5,2.4,1.7,5,1.7,17.2S714.1,951.8,713.4,953Z"/><path d="M808.4,914.3c-2,2.4-3,8.9-3,19.7,0,12.5.9,19.7,2.7,22.2,2.4,3.2,7.8,4.7,16.7,4.7s14.3-1.5,16.7-4.7c1.8-2.5,2.7-9.2,2.7-20.5,0-11.8-.9-18.8-2.8-21.3s-7.4-3.8-16.6-3.8C815.8,910.7,810.5,911.9,808.4,914.3Zm28,4.3c.8,1.1,1.7,5,1.7,17.2s-.9,16-1.7,17.2-3.4,2.4-11.5,2.4-10.8-1.3-11.6-2.4-1.7-5-1.7-17.2.9-16,1.7-17.1,3.4-2.4,11.6-2.4S835.6,917.5,836.4,918.6Z"/><path d="M932.5,935.8c0-11.8-.9-18.8-2.9-21.3s-7.4-3.8-16.6-3.8c-9,0-14.3,1.2-16.4,3.7s-3,8.9-3,19.7c0,12.5.9,19.7,2.7,22.2,2.4,3.2,7.8,4.7,16.7,4.7s14.3-1.5,16.7-4.7C931.6,953.8,932.5,947.1,932.5,935.8ZM924.6,953c-.8,1.1-3.4,2.4-11.5,2.4s-10.8-1.3-11.6-2.4-1.7-5-1.7-17.2.9-16,1.7-17.1,3.4-2.4,11.6-2.4,10.8,1.3,11.5,2.4,1.7,5,1.7,17.2S925.4,951.8,924.6,953Z"/><polygon points="794.7 1098 801.1 1098 801.1 1048.7 792.6 1048.7 779.1 1063.4 778.7 1063.7 782.9 1067.7 794.7 1054.5 794.7 1098"/><polygon points="813.4 1063.4 813 1063.7 817.2 1067.7 829 1054.5 829 1098 835.4 1098 835.4 1048.7 826.9 1048.7 813.4 1063.4"/><path d="M749.4,1047.7c-9,0-14.3,1.2-16.4,3.7s-3,8.9-3,19.7c0,12.5.9,19.7,2.7,22.2,2.4,3.2,7.8,4.7,16.7,4.7s14.3-1.5,16.7-4.7c1.8-2.5,2.7-9.2,2.7-20.5,0-11.8-.9-18.8-2.9-21.3S758.5,1047.7,749.4,1047.7Zm11.5,42.3c-.8,1.1-3.4,2.4-11.5,2.4s-10.8-1.3-11.5-2.4-1.7-5-1.7-17.2.9-16,1.7-17.1,3.4-2.4,11.5-2.4,10.8,1.3,11.5,2.4,1.7,5,1.7,17.2-.9,16-1.7,17.1Z"/><path d="M810.8,1116.6c-9,0-14.3,1.2-16.4,3.7s-3,8.9-3,19.7c0,12.5.9,19.7,2.7,22.2,2.4,3.2,7.8,4.7,16.7,4.7s14.3-1.5,16.7-4.7c1.8-2.5,2.7-9.2,2.7-20.5,0-11.8-.9-18.8-2.8-21.3S820,1116.6,810.8,1116.6Zm11.6,42.3c-.7,1.1-3.3,2.4-11.5,2.4s-10.8-1.3-11.6-2.4-1.7-5-1.7-17.2.9-16,1.7-17.2,3.4-2.4,11.6-2.4,10.8,1.3,11.5,2.4c1.1,1.6,1.7,7.4,1.7,17.2s-.6,15.6-1.7,17.2Z"/><polygon points="852.4 748.7 852.4 699.4 843.8 699.4 830.3 714.1 830 714.4 834.1 718.4 846 705.2 846 748.7 852.4 748.7"/><polygon points="1182.1 714.1 1181.8 714.4 1185.9 718.4 1197.8 705.2 1197.8 748.7 1204.2 748.7 1204.2 699.4 1195.6 699.4 1182.1 714.1"/><polygon points="1215.3 714.1 1214.9 714.4 1219.1 718.4 1230.9 705.2 1230.9 748.7 1237.3 748.7 1237.3 699.4 1228.8 699.4 1215.3 714.1"/><path d="M396.4,698.9c-9,0-14.4,1.2-16.4,3.7s-3,8.9-3,19.7c0,12.5.9,19.7,2.7,22.2,2.4,3.2,7.8,4.7,16.7,4.7s14.3-1.5,16.7-4.7c1.8-2.5,2.7-9.2,2.7-20.5,0-11.8-.9-18.8-2.9-21.3S405.5,698.9,396.4,698.9Zm11.5,42.3c-.8,1.1-3.4,2.4-11.5,2.4s-10.8-1.3-11.5-2.4c-1.1-1.6-1.7-7.4-1.7-17.2,0-12.1.9-16,1.7-17.1s3.4-2.4,11.5-2.4,10.8,1.3,11.5,2.4,1.7,5,1.7,17.1-.9,16.1-1.7,17.2Z"/><path d="M468.4,724c0-11.8-.9-18.8-2.9-21.3s-7.4-3.8-16.6-3.8c-9,0-14.4,1.2-16.4,3.7s-3,8.9-3,19.7c0,12.5.9,19.7,2.7,22.2,2.4,3.2,7.8,4.7,16.7,4.7s14.4-1.5,16.7-4.7C467.5,742,468.4,735.3,468.4,724Zm-7.9,17.2c-.8,1.1-3.4,2.4-11.5,2.4s-10.8-1.3-11.6-2.4c-1.1-1.6-1.7-7.4-1.7-17.2,0-12.1.9-16,1.7-17.1s3.4-2.4,11.6-2.4,10.8,1.3,11.5,2.4,1.7,5,1.7,17.1-.9,16.1-1.7,17.2Z"/><path d="M822.8,885.9c1.8-2.5,2.7-9.2,2.7-20.5,0-11.8-.9-18.8-2.9-21.3s-7.4-3.8-16.6-3.8a63.6,63.6,0,0,0-8.7.6c-4,.6-6.5,1.6-7.7,3.1-1.7,2.1-2.7,7-2.9,15.1,0,1.5-.1,3-.1,4.6,0,12.5.9,19.8,2.7,22.2,2.4,3.2,7.8,4.7,16.7,4.7S820.4,889,822.8,885.9Zm-28.3-3.3c-1.1-1.6-1.7-7.4-1.7-17.2,0-8.1.4-13.5,1.2-16a5.94,5.94,0,0,0,.4-.8c.1-.3.2-.4.2-.5,1.2-1.5,5.1-2.3,11.4-2.3,8.2,0,10.8,1.3,11.5,2.4s1.7,5,1.7,17.2-.9,16-1.7,17.2S814.1,885,806,885,795.3,883.7,794.5,882.6Z"/><path d="M1129.2,495.9v25.5a123,123,0,0,1,6.1,18h.4V490.1h-8.6l-10.7,11.6c1.3,1.3,2.5,2.8,3.8,4.3Z"/><polygon points="1165.4 495.9 1165.4 539.3 1171.8 539.3 1171.8 490 1163.3 490 1150.4 504 1149.4 505.1 1153.6 509 1165.4 495.9"/><path d="M780.2,497.5c.5.8,1.2,3.1,1.5,8.6A64.16,64.16,0,0,1,788,519v-4.4c0-11.9-.9-18.8-2.8-21.4s-7.4-3.8-16.6-3.8c-1.6,0-3,.1-4.4.2a50.17,50.17,0,0,1,8.1,5.5C777.6,495.6,779.6,496.6,780.2,497.5Z"/><polygon points="465.6 495.9 465.6 539.3 472 539.3 472 490 463.5 490 449.6 505.1 453.8 509 465.6 495.9"/><path d="M925,775.5c8.2,0,10.8,1.3,11.6,2.4s1.7,5,1.7,17.2-.9,16-1.7,17.2-3.4,2.4-11.6,2.4h-2.3v5.5c.8,0,1.4.1,2.3.1,8.9,0,14.3-1.5,16.7-4.7,1.6-2.1,2.4-7.3,2.7-15.9,0-1.5.1-3,.1-4.6s0-3.2-.1-4.7c-.2-9-1.2-14.5-2.8-16.6-2-2.5-7.4-3.8-16.6-3.8-.8,0-1.5.1-2.3.1v5.5A17.7,17.7,0,0,1,925,775.5Z"/><path d="M689.2,609.6c8.9,0,14.3-1.5,16.7-4.7,1.8-2.5,2.7-9.2,2.7-20.5a93.71,93.71,0,0,0-1-15.9,13,13,0,0,0-1.9-5.4c-1.3-1.6-4.1-2.7-8.7-3.3a68.37,68.37,0,0,0-7.9-.5c-9,0-14.4,1.2-16.4,3.7s-3,8.9-3,19.7c0,12.5.9,19.7,2.7,22.2C674.8,608.1,680.3,609.6,689.2,609.6Zm-11.6-42.3c.8-1.1,3.4-2.4,11.6-2.4s10.8,1.3,11.5,2.4,1.7,5,1.7,17.1-.9,16-1.7,17.2-3.4,2.4-11.5,2.4-10.8-1.3-11.6-2.4-1.7-5-1.7-17.2S676.8,568.5,677.6,567.3Z"/><path d="M585,584.5c0-11.8-.9-18.8-2.9-21.3a6.77,6.77,0,0,0-2.6-1.8v45.9a8.55,8.55,0,0,0,2.8-2.2C584.1,602.5,585,595.8,585,584.5Z"/><path d="M456.9,582.7c0,12.5.9,19.7,2.7,22.2,2.4,3.2,7.8,4.7,16.7,4.7h.9c8.4-.1,13.6-1.6,15.8-4.7,1.8-2.5,2.7-9.2,2.7-20.5,0-11.8-.9-18.8-2.9-21.3s-7-3.7-15.7-3.8h-.9c-9,0-14.4,1.2-16.4,3.7S456.9,571.9,456.9,582.7Zm7.9-15.4c.8-1.1,3.4-2.4,11.6-2.4h.9c7.6.1,10,1.3,10.7,2.4,1.1,1.7,1.7,7.4,1.7,17.1s-.6,15.5-1.7,17.2c-.7,1-3.1,2.3-10.7,2.4h-.9c-8.2,0-10.8-1.3-11.6-2.4s-1.7-5-1.7-17.2S464,568.5,464.8,567.3Z"/><path d="M851.7,601.6c-.8-1.1-1.7-5-1.7-17.2s.9-16,1.7-17.1a4.56,4.56,0,0,1,2.7-1.5V560c-3.7.6-6.3,1.5-7.5,3-2,2.5-3,8.9-3,19.7,0,12.5.9,19.7,2.7,22.2,1.4,1.9,4,3.1,7.8,3.8v-5.6A5.23,5.23,0,0,1,851.7,601.6Z"/><path d="M764.2,652.2V657c2.1.9,4.1,2,6.1,3.1,0-1.8.1-3.7.1-5.8,0-4.3-.1-8-.4-11.1a34.34,34.34,0,0,0-.8-5.6c-1.8,1.3-3.7,2.6-5.6,3.7A98.18,98.18,0,0,1,764.2,652.2Z"/><path d="M1054.9,654.3c0-9.7.6-15.5,1.7-17.2.8-1.1,3.4-2.4,11.6-2.4h.4c.5-1.7.9-3.6,1.3-5.5-.6,0-1.1-.1-1.7-.1-9,0-14.4,1.2-16.4,3.7s-3,8.9-3,19.7v4.3a39.2,39.2,0,0,0,6.1-2.5Z"/><polygon points="622.9 713.2 621.3 714.9 625.5 718.9 637.3 705.7 637.3 749.2 643.7 749.2 643.7 699.9 635.2 699.9 622.9 713.2"/><polygon points="1149.7 714.1 1149.4 714.4 1153.6 718.4 1165.4 705.2 1165.4 748.7 1171.8 748.7 1171.8 699.4 1163.3 699.4 1149.7 714.1"/><path d="M694.9,702.6c-1.6,1.9-2.5,6.1-2.8,13-.1,2.1-.2,4.3-.2,6.7,0,12.5.9,19.8,2.7,22.2,2.4,3.2,7.8,4.7,16.7,4.7s14.3-1.5,16.7-4.7c.1-.1.2-.3.3-.4l.1-.2c1.6-2.8,2.4-9.3,2.4-19.9,0-11.8-.9-18.8-2.9-21.3s-7.4-3.8-16.6-3.8C702.3,698.9,697,700.1,694.9,702.6Zm28,4.3c.8,1.1,1.7,5,1.7,17.1,0,3.5-.1,6.6-.2,9.1-.3,4.3-.8,7-1.5,8s-3.3,2.4-11.5,2.4-10.8-1.3-11.5-2.4-1.7-5-1.7-17.2c0-2.7,0-5.3.2-7.6.3-6.4,1-8.7,1.5-9.5.8-1.1,3.4-2.4,11.5-2.4s10.7,1.4,11.5,2.5Z"/><path d="M70,1514.8H28.3V1417H66.9c20.4,0,27.9,8.2,27.9,21.4v10c0,7-3.1,12-10.9,15.4a18.53,18.53,0,0,1,14.4,18.1v9.6C98.3,1505.3,89.6,1514.8,70,1514.8Zm2.8-73.1c0-4.3-2.6-6.9-8.8-6.9H50.3v22.3H64c5.9,0,8.8-2.9,8.8-6.9Zm3.5,40.8c0-5.4-3.4-8.2-9.3-8.2H50.3V1497H64c6.9,0,12.3-1.5,12.3-8.5Z"/><path d="M173.6,1486.6v28.2h-22v-28.2L121.2,1417h23l18.4,45.4,18.3-45.4h23Z"/><path d="M279,1436.6v78.2H257v-78.2H230.7v-19.5h74.6v19.5Z"/><path d="M337.2,1514.8V1417h61.5v19.5H359.2v17.9h36.4v19.5H359.2v21.3h39.5v19.5H337.2Z"/><path d="M526.3,1485.2H509.6v29.6h-22V1417h39.9c23.8,0,32.6,9.4,32.6,27.7v12.8C560.1,1475.9,550.1,1485.2,526.3,1485.2Zm11.7-38.3c0-7.1-2.5-10.3-11.7-10.3H509.6v29.5h16.7c9.7,0,11.7-3.7,11.7-10.7Z"/><path d="M666.8,1417.1v69.3c0,14.8-9.2,29.9-36.8,29.9s-36.8-15.1-36.8-29.9v-69.3h22v67.2c0,7.9,3.8,12.5,14.8,12.5s14.8-4.5,14.8-12.5v-67.2Z"/><path d="M734.4,1516.3c-11.3,0-23.2-2.5-31.6-6.3l3.7-17a93.13,93.13,0,0,0,28.2,4.7c11.3,0,13.5-2.2,13.5-10.4,0-8.8-.4-9.8-16.4-13.4-23.6-5.1-27.2-9.8-27.2-31,0-19.5,6.9-27.3,33.8-27.3a139.76,139.76,0,0,1,29.6,3.2l-2.2,18.5c-11.2-1.9-18.4-2.8-27.1-2.8-9.8,0-12,1.8-12,9,0,9.4.4,9.5,15.9,13.2,26.4,6.3,27.7,11.4,27.7,30.7S763.9,1516.3,734.4,1516.3Z"/><path d="M859.8,1514.8v-39.3H828.2v39.3h-22V1417h22v38.9h31.6V1417h22v97.8Z"/><path d="M921.5,1514.8V1417H983v19.5H943.5v17.9h36.4v19.5H943.5v21.3H983v19.5H921.5Z"/><path d="M1055.4,1484.4h-12.9v30.4h-22V1417h40.6c23.8,0,32.6,9.4,32.6,27.7v12c0,12.2-4.4,20.4-14.2,24.5l23.6,33.5H1077Zm16.3-37.5c0-7.3-2.8-10.3-11.7-10.3h-17.5v28.8H1060c9.4,0,11.7-3.4,11.7-10.7Z"/><path d="M1164.1,1516.3c-11.3,0-23.2-2.5-31.6-6.3l3.7-17a93.13,93.13,0,0,0,28.2,4.7c11.3,0,13.5-2.2,13.5-10.4,0-8.8-.4-9.8-16.4-13.4-23.6-5.1-27.1-9.8-27.1-31,0-19.5,6.9-27.3,33.8-27.3a139.76,139.76,0,0,1,29.6,3.2l-2.2,18.5c-11.1-1.9-18.4-2.8-27.1-2.8-9.8,0-12,1.8-12,9,0,9.4.4,9.5,15.9,13.2,26.4,6.3,27.7,11.4,27.7,30.7S1193.6,1516.3,1164.1,1516.3Z"/><path d="M1244,1536.7l-9.6-5.4,8.4-16.4h-7v-24.4h21.1v25.8Z"/><path d="M1348.7,1514.8V1417h22v97.8Z"/><path d="M1432.1,1450.5v64.3h-21V1417h27l32.1,67.4V1417h21v97.8H1464Z"/><path d="M1550.8,1482.8c0,8.5,2.8,13.5,13.6,13.5a165.25,165.25,0,0,0,25.3-2.3l3.1,19.2a134.8,134.8,0,0,1-28.3,3.1c-24.7,0-35.7-12.2-35.7-29.9v-40.8c0-17.8,11-29.9,35.7-29.9a128.48,128.48,0,0,1,28.3,3.1l-3.1,19.2a177.63,177.63,0,0,0-25.3-2.4c-10.9,0-13.6,5-13.6,13.5Z"/></svg>