<svg id="Layer_1" data-name="Layer 1" xmlns="http://www.w3.org/2000/svg" viewBox="0 0 1625.91 1539.37"><defs><style>.cls-1{fill:#fff;}</style></defs><title>bytePushersLogo</title><polygon class="cls-1" points="1592.72 461.35 1427.07 626.99 809.32 9.25 616.27 202.31 647.42 233.44 809.32 71.52 846.77 108.96 846.37 109.4 851.28 114.31 851.67 113.88 861.23 123.44 861.23 124.27 869.39 132.42 869.39 131.6 1395.94 658.12 1207.88 846.2 1239.02 877.33 1623.85 492.48 1592.72 461.35"/><polygon class="cls-1" points="811.77 1248.29 225.16 661.67 413.2 473.62 382.07 442.48 -2.77 827.32 28.38 858.47 194.03 692.81 811.77 1310.57 1004.82 1117.52 973.67 1086.37 811.77 1248.29"/><path class="cls-1" d="M505.54,673.84c-8.19,0-10.81-1.31-11.56-2.4s-1.7-5-1.7-17.18.92-16,1.7-17.15,3.37-2.41,11.56-2.41a48.15,48.15,0,0,1,5.63.29v-5.65c-1.7-.13-3.54-.21-5.63-.21-9,0-14.36,1.21-16.41,3.68s-3,8.88-3,19.71c0,12.47.89,19.73,2.71,22.21,2.36,3.16,7.83,4.69,16.72,4.69,2.07,0,3.93-.1,5.63-.27v-5.6A46.49,46.49,0,0,1,505.54,673.84Z"/><polygon class="cls-1" points="926.99 890.56 926.99 841.26 918.42 841.26 904.89 855.93 904.57 856.29 908.72 860.21 920.56 847.07 920.56 890.56 926.99 890.56"/><polygon class="cls-1" points="892.08 890.56 892.08 841.26 883.52 841.26 870 855.93 869.67 856.29 873.81 860.21 885.66 847.07 885.66 890.56 892.08 890.56"/><polygon class="cls-1" points="555.8 855.93 555.48 856.29 559.62 860.21 571.46 847.07 571.46 890.56 577.89 890.56 577.89 841.26 569.33 841.26 555.8 855.93"/><polygon class="cls-1" points="518.23 855.93 517.91 856.29 522.05 860.21 533.89 847.07 533.89 890.56 540.32 890.56 540.32 841.26 531.76 841.26 518.23 855.93"/><polygon class="cls-1" points="658.7 847.07 658.7 890.56 665.13 890.56 665.13 841.26 656.57 841.26 643.05 855.93 642.72 856.29 646.86 860.21 658.7 847.07"/><path class="cls-1" d="M612.07,890.56c8.88,0,14.34-1.54,16.71-4.7,1.83-2.47,2.71-9.17,2.71-20.47,0-11.85-.94-18.83-2.85-21.34s-7.38-3.79-16.57-3.79c-9,0-14.36,1.21-16.41,3.69s-3,8.88-3,19.7c0,12.49.89,19.75,2.72,22.21C597.73,889,603.19,890.56,612.07,890.56Zm-11.56-42.32c.76-1.09,3.38-2.4,11.56-2.4s10.79,1.31,11.54,2.4,1.72,5,1.72,17.15-.94,16.05-1.72,17.18S620.24,885,612.07,885s-10.8-1.31-11.56-2.41-1.7-5-1.7-17.18S599.73,849.38,600.51,848.24Z"/><path class="cls-1" d="M682,844c-2,2.43-3,8.88-3,19.7,0,12.47.89,19.74,2.72,22.21,2.36,3.16,7.83,4.7,16.71,4.7s14.34-1.54,16.71-4.7c1.82-2.47,2.71-9.17,2.71-20.47,0-11.85-.93-18.83-2.86-21.34s-7.37-3.79-16.56-3.79S684.06,841.47,682,844Zm28,4.29c.78,1.14,1.7,5,1.7,17.15s-.92,16-1.7,17.18S706.6,885,698.39,885s-10.8-1.31-11.56-2.41c-1.12-1.64-1.7-7.43-1.7-17.18s.58-15.5,1.7-17.15c.76-1.09,3.38-2.4,11.56-2.4s10.82,1.29,11.58,2.38Z"/><path class="cls-1" d="M771.17,873.4c.13-2.42.2-5.12.2-8,0-11.85-.94-18.83-2.85-21.34s-7.39-3.79-16.58-3.79c-9,0-14.35,1.21-16.4,3.69s-3,8.88-3,19.7c0,12.47.89,19.74,2.71,22.21a1.81,1.81,0,0,0,.48.43l.23.19c2.66,2.74,7.91,4.08,16,4.08,8.88,0,14.35-1.54,16.72-4.7C770,884,770.82,880,771.17,873.4Zm-6.37,3.13c-.29,3.17-.74,5.2-1.31,6-.75,1.1-3.37,2.41-11.55,2.41a33.85,33.85,0,0,1-8.57-.85,5.4,5.4,0,0,1-3-1.56c-1.12-1.64-1.69-7.43-1.69-17.18s.57-15.5,1.69-17.15c.77-1.09,3.38-2.4,11.56-2.4s10.8,1.31,11.55,2.4,1.71,5,1.71,17.15c0,4.55-.13,8.3-.39,11.18Z"/><path class="cls-1" d="M699.21,539.85v-3.63a59.43,59.43,0,0,0-6.42-1.56v5.19Z"/><polygon class="cls-1" points="847.9 490.05 834.05 505.07 838.2 508.99 850.04 495.87 850.04 539.35 854.42 539.35 854.42 490.05 847.9 490.05"/><rect class="cls-1" x="922.76" y="533.31" width="2.91" height="6.03"/><rect class="cls-1" x="953.39" y="533.31" width="6.42" height="6.03"/><path class="cls-1" d="M1102.2,490.05h-2c.69.35,1.34.74,2,1.11Z"/><path class="cls-1" d="M506.52,534.27c-8.18,0-10.8-1.31-11.56-2.42-1.13-1.64-1.7-7.43-1.7-17.17,0-12.13.92-16,1.7-17.15s3.38-2.41,11.56-2.41c1.82,0,3.34.07,4.65.19v-5.58c-1.47-.1-2.93-.19-4.65-.19-9,0-14.35,1.21-16.41,3.69s-3,8.88-3,19.71c0,12.47.9,19.73,2.73,22.21,2.36,3.16,7.84,4.7,16.71,4.7,1.71,0,3.18-.11,4.65-.23v-5.54C509.86,534.19,508.39,534.27,506.52,534.27Z"/><path class="cls-1" d="M646.39,539.85c8.88,0,14.34-1.54,16.71-4.7a7.85,7.85,0,0,0,.9-1.84h-8.55a43.28,43.28,0,0,1-18.13,0h-8.53a7.79,7.79,0,0,0,.88,1.84C632,538.31,637.52,539.85,646.39,539.85Z"/><path class="cls-1" d="M609.57,535.15a8.26,8.26,0,0,0,.9-1.84h-8.55a43.28,43.28,0,0,1-18.13,0H579.5v4.29c3,1.46,7.4,2.25,13.35,2.25C601.73,539.85,607.21,538.31,609.57,535.15Z"/><path class="cls-1" d="M994.59,539.85c8.87,0,14.34-1.54,16.71-4.7a7.63,7.63,0,0,0,.88-1.76c-1.58,0-3.09-.08-4.74-.08h-3.79a43.28,43.28,0,0,1-18.13,0H977a6.8,6.8,0,0,0,.89,1.84C980.25,538.31,985.71,539.85,994.59,539.85Z"/><path class="cls-1" d="M1048.26,539.85a53.71,53.71,0,0,0,6.21-.33c-5.54-2.44-13.4-4.12-23.34-5.13a5.63,5.63,0,0,0,.42.76C1033.92,538.31,1039.39,539.85,1048.26,539.85Z"/><path class="cls-1" d="M804.7,775.46a45.27,45.27,0,0,1,6.26.4c2.88.41,4.66,1.08,5.29,2,.77,1.15,1.7,5,1.7,17.16s-.93,16-1.7,17.17c-.59.86-2.44,1.95-8,2.28-1.09.07-2.26.13-3.6.13-8.18,0-10.8-1.32-11.56-2.41-.94-1.37-1.49-5.65-1.65-12.67a61.86,61.86,0,0,1-5.57,8.41c.46,3.79,1.14,6.31,2.07,7.56,2.37,3.15,7.83,4.69,16.71,4.69a13.23,13.23,0,0,0,1.92-.09l1-.05c7.26-.34,11.78-1.83,13.83-4.55,1.82-2.46,2.71-9.15,2.71-20.47,0-11.85-.94-18.84-2.85-21.35-1.47-1.9-4.85-3-10.32-3.53-1.89-.17-4-.26-6.25-.26-1.2,0-2.16.08-3.23.12q-.53,2.88-1.15,5.63C801.58,775.53,803,775.46,804.7,775.46Z"/><polygon class="cls-1" points="504.15 785.05 503.81 785.4 507.95 789.33 511.17 785.76 511.17 777.42 504.15 785.05"/><polygon class="cls-1" points="507.93 575.01 507.61 575.36 511.17 578.74 511.17 571.49 507.93 575.01"/><polygon class="cls-1" points="1159.35 574.86 1163.5 578.79 1175.34 565.65 1175.34 609.14 1181.77 609.14 1181.77 559.84 1173.2 559.84 1159.68 574.51 1159.35 574.86"/><path class="cls-1" d="M720.08,574.86l4.14,3.93,2-2.22a66.1,66.1,0,0,0-.49-7.83l-5.34,5.77Z"/><path class="cls-1" d="M793.08,604.94c.82-1.09,1.44-3.08,1.89-6a99.58,99.58,0,0,0,.82-14.44c0-3.74-.09-7-.29-9.74-.31,12.24-2,23.08-5.08,32.41A8.41,8.41,0,0,0,793.08,604.94Z"/><path class="cls-1" d="M619,677.36H590.69c3,1.71,7.63,2.56,14.16,2.56S616.07,679.07,619,677.36Z"/><path class="cls-1" d="M936.56,584.46c0-11.84-.94-18.81-2.85-21.33-1.51-2-5.16-3.14-11-3.57v5.64c3.84.45,5.38,1.33,5.93,2.12.78,1.14,1.7,5,1.7,17.14s-.92,16-1.7,17.18c-.55.8-2.09,1.69-5.93,2.14v5.59c5.59-.56,9.27-2,11.08-4.43S936.56,595.78,936.56,584.46Z"/><path class="cls-1" d="M1141.39,584.46v4.25c.1,3.53.17,7.11.17,10.82,0,2.69,0,5.32-.08,7.92a9.24,9.24,0,0,0,3.42-2.51c1.83-2.47,2.71-9.16,2.71-20.48,0-11.83-.94-18.81-2.85-21.33-1-1.26-2.8-2.19-5.49-2.82q.49,3.84.88,7.87C1140.93,570.54,1141.39,576,1141.39,584.46Z"/><polygon class="cls-1" points="465.35 635.94 465.35 679.42 471.79 679.42 471.79 630.13 463.21 630.13 449.37 645.14 453.51 649.07 465.35 635.94"/><rect class="cls-1" x="654.19" y="677.36" width="6.42" height="2.06"/><path class="cls-1" d="M1138.09,648.57l11.83-13.13v43.49h6.47V629.62h-8.57l-8.54,9.28c-.42,3.26-.9,6.39-1.43,9.41Z"/><path class="cls-1" d="M701.59,679.24c-4.56-.61-9.7-1.08-15.49-1.39a36.18,36.18,0,0,0,11.79,1.57C699.25,679.42,700.39,679.32,701.59,679.24Z"/><path class="cls-1" d="M847,671.44c-1.11-1.64-1.68-7.42-1.68-17.18s.57-15.51,1.68-17.15c.62-.88,2.51-1.9,7.46-2.26v-5.61c-4.42.23-7.77.85-9.94,1.88a6.49,6.49,0,0,0-2.35,1.69c-2,2.44-3,8.88-3,19.71,0,12.47.9,19.74,2.72,22.21a8.08,8.08,0,0,0,2.62,2.17c2.3,1.29,5.66,2.07,10,2.38v-5.59C849.46,673.32,847.58,672.32,847,671.44Z"/><polygon class="cls-1" points="655.6 713.23 654.02 714.94 658.16 718.87 670 705.73 670 749.21 676.43 749.21 676.43 699.91 667.87 699.91 655.6 713.23"/><path class="cls-1" d="M504.16,743.64c-8.18,0-10.81-1.31-11.56-2.42s-1.7-5-1.7-17.18.93-16,1.7-17.14,3.38-2.41,11.56-2.41a44.34,44.34,0,0,1,7,.46v-5.68a68.21,68.21,0,0,0-7-.35c-9,0-14.35,1.2-16.41,3.68s-3,8.89-3,19.71c0,12.47.89,19.73,2.72,22.2,2.36,3.17,7.83,4.7,16.71,4.7a51.23,51.23,0,0,0,7-.47v-5.57A43.44,43.44,0,0,1,504.16,743.64Z"/><path class="cls-1" d="M608.39,744.51c1.83-2.47,2.73-9.16,2.73-20.47,0-4-.13-7.54-.36-10.54-.43-5.63-1.25-9.16-2.51-10.8-2-2.54-7.36-3.78-16.57-3.78a42,42,0,0,0-12.18,1.38v8.25a5.42,5.42,0,0,1,.63-1.65c.76-1.1,3.38-2.41,11.55-2.41s10.8,1.31,11.56,2.42c.43.6,1,2.26,1.35,6.67.24,2.78.35,6.3.35,10.46,0,12.14-.92,16.05-1.71,17.18s-3.35,2.42-11.55,2.42-10.8-1.31-11.55-2.42a5.62,5.62,0,0,1-.63-1.59v7.85c2.94,1.11,6.88,1.73,12.18,1.73C600.57,749.21,606,747.67,608.39,744.51Z"/><path class="cls-1" d="M809.19,706.9c.77,1.14,1.7,5,1.7,17.14s-.93,16.05-1.7,17.18c-.63.91-2.37,1.57-5.09,2-.06,1.86-.07,3.78-.16,5.58a3.64,3.64,0,0,0,.8-.06c4.78-.67,8-2.08,9.61-4.2,1.82-2.45,2.71-9.15,2.71-20.47,0-11.83-.93-18.81-2.85-21.34s-6.82-3.59-14.82-3.73c.54,1.82,1.07,3.68,1.51,5.6C806.51,704.88,808.54,706,809.19,706.9Z"/><path class="cls-1" d="M1093.6,748.71H1100V706.82c-2,.92-4.17,1.8-6.43,2.62Z"/><path class="cls-1" d="M1077.62,714.44l4.14,3.92,6.4-7.1c-3.16,1-6.52,1.85-10,2.65l-.17.18Z"/><polygon class="cls-1" points="1112.84 714.09 1112.51 714.44 1116.66 718.36 1128.5 705.23 1128.5 748.71 1134.93 748.71 1134.93 699.41 1126.36 699.41 1112.84 714.09"/><path class="cls-1" d="M952.83,724c0,12.14-.92,16-1.7,17.18s-3.37,2.42-11.56,2.42-10.8-1.31-11.55-2.42c-1.13-1.64-1.7-7.42-1.7-17.18,0-1.65,0-3.1,0-4.46h-3.61v24.74l.1.19c2.37,3.17,7.83,4.7,16.71,4.7s14.34-1.53,16.71-4.7C958.11,742,959,735.31,959,724c0-1.57,0-3,0-4.46h-6.18C952.81,720.94,952.83,722.39,952.83,724Z"/><path class="cls-1" d="M1005.7,724c0,12.14-.93,16-1.7,17.18s-3.38,2.42-11.55,2.42-10.8-1.31-11.56-2.42c-1.13-1.64-1.69-7.42-1.69-17.18,0-1.61,0-3.06,0-4.46h-6.19v2.73c0,12.48.9,19.75,2.73,22.2,2.37,3.17,7.83,4.7,16.7,4.7s14.34-1.53,16.72-4.7c1.82-2.45,2.7-9.14,2.7-20.47v-4.6l-6.17.1C1005.68,720.9,1005.7,722.38,1005.7,724Z"/><path class="cls-1" d="M1060.7,724c0,12.14-.92,16-1.7,17.18s-3.37,2.42-11.55,2.42-10.81-1.31-11.57-2.42c-1.11-1.65-1.68-7.43-1.68-17.18,0-1.88,0-3.51.07-5-2,.09-4.09.16-6.2.2v3.09c0,12.47.89,19.74,2.72,22.2,2.36,3.17,7.83,4.7,16.7,4.7s14.35-1.53,16.72-4.7c1.82-2.45,2.7-9.14,2.7-20.47q0-4.42-.17-7.95c-2,.31-4,.61-6.13.88C1060.66,719,1060.7,721.26,1060.7,724Z"/><polygon class="cls-1" points="748.83 401.48 748.83 352.18 740.25 352.18 726.74 366.86 726.41 367.21 730.55 371.13 742.4 358 742.4 401.48 748.83 401.48"/><polygon class="cls-1" points="597.5 358 597.5 401.48 603.92 401.48 603.92 352.18 595.36 352.18 581.84 366.86 581.51 367.21 585.65 371.13 597.5 358"/><polygon class="cls-1" points="837.54 401.48 837.54 352.18 828.97 352.18 815.44 366.86 815.12 367.21 819.27 371.13 831.11 358 831.11 401.48 837.54 401.48"/><polygon class="cls-1" points="871.55 401.48 871.55 352.18 862.98 352.18 849.46 366.86 849.13 367.21 853.27 371.13 865.11 358 865.11 401.48 871.55 401.48"/><polygon class="cls-1" points="933.74 366.86 933.41 367.21 937.55 371.13 949.39 358 949.39 401.48 955.82 401.48 955.82 352.18 947.26 352.18 933.74 366.86"/><polygon class="cls-1" points="983.1 358 983.1 401.48 989.53 401.48 989.53 352.18 980.97 352.18 967.45 366.86 967.12 367.21 971.26 371.13 983.1 358"/><polygon class="cls-1" points="1018.3 358 1018.3 401.48 1024.73 401.48 1024.73 352.18 1016.16 352.18 1002.64 366.86 1002.32 367.21 1006.46 371.13 1018.3 358"/><path class="cls-1" d="M640,402c8.88,0,14.34-1.54,16.7-4.69,1.83-2.48,2.72-9.18,2.72-20.48,0-11.85-.94-18.83-2.86-21.33s-7.38-3.79-16.56-3.79c-9,0-14.36,1.21-16.41,3.69s-3,8.87-3,19.7c0,12.47.88,19.73,2.7,22.21C625.67,400.45,631.13,402,640,402Zm-11.56-42.32c.76-1.09,3.37-2.4,11.56-2.4s10.79,1.31,11.54,2.4,1.71,5,1.71,17.15-.88,16-1.71,17.17-3.37,2.41-11.54,2.41-10.8-1.3-11.56-2.41c-1.13-1.64-1.7-7.42-1.7-17.18s.57-15.51,1.7-17.16Z"/><path class="cls-1" d="M674.73,375.08c0,12.46.88,19.73,2.72,22.21,2.36,3.16,7.82,4.69,16.7,4.69s14.35-1.54,16.71-4.69c1.84-2.48,2.73-9.18,2.73-20.48,0-11.85-.94-18.83-2.87-21.33s-7.37-3.79-16.57-3.79c-9,0-14.35,1.21-16.4,3.69S674.73,364.26,674.73,375.08Zm7.87-15.42c.76-1.09,3.38-2.4,11.55-2.4s10.8,1.31,11.55,2.4,1.71,5,1.71,17.15-.92,16.05-1.71,17.18-3.35,2.41-11.55,2.41-10.76-1.3-11.55-2.4-1.71-5-1.71-17.18.94-16,1.71-17.16Z"/><path class="cls-1" d="M767,355.38c-2,2.43-3,8.87-3,19.7,0,12.47.89,19.73,2.73,22.21,2.36,3.16,7.82,4.69,16.7,4.69s14.34-1.54,16.71-4.69c1.83-2.48,2.72-9.18,2.72-20.48,0-11.85-.94-18.83-2.87-21.33s-7.37-3.79-16.56-3.79C774.45,351.69,769.09,352.9,767,355.38Zm28,4.28c.77,1.14,1.7,5,1.7,17.15S795.8,392.86,795,394s-3.38,2.41-11.55,2.41-10.79-1.3-11.55-2.41c-1.14-1.64-1.71-7.42-1.71-17.18s.57-15.5,1.71-17.14c.76-1.1,3.37-2.41,11.55-2.41s10.75,1.31,11.51,2.4Z"/><polygon class="cls-1" points="878.81 222.03 878.81 265.52 885.24 265.52 885.24 216.22 876.68 216.22 863.15 230.9 862.82 231.25 866.96 235.17 878.81 222.03"/><polygon class="cls-1" points="739.27 222.03 739.27 265.52 745.71 265.52 745.71 216.22 737.14 216.22 723.62 230.9 723.28 231.25 727.42 235.17 739.27 222.03"/><path class="cls-1" d="M781.31,266c8.88,0,14.34-1.54,16.71-4.7,1.82-2.46,2.71-9.16,2.71-20.48,0-11.84-.93-18.81-2.86-21.33s-7.37-3.79-16.56-3.79c-9,0-14.37,1.21-16.41,3.68s-3,8.89-3,19.71c0,12.48.9,19.75,2.73,22.21C767,264.48,772.39,266,781.31,266Zm-11.57-42.3c.77-1.09,3.39-2.41,11.57-2.41s10.79,1.31,11.55,2.41,1.69,5,1.69,17.14-.92,16-1.69,17.19-3.38,2.41-11.55,2.41-10.8-1.31-11.57-2.42c-1.12-1.63-1.69-7.41-1.69-17.18S768.62,225.34,769.74,223.7Z"/><path class="cls-1" d="M813.33,239.11c0,12.49.9,19.75,2.72,22.21,2.36,3.16,7.83,4.7,16.71,4.7s14.35-1.54,16.72-4.7c1.81-2.47,2.7-9.17,2.7-20.48,0-11.84-.93-18.82-2.86-21.33s-7.37-3.79-16.56-3.79c-9,0-14.37,1.21-16.4,3.68S813.33,228.3,813.33,239.11Zm7.86-15.41c.76-1.09,3.39-2.41,11.57-2.41s10.8,1.31,11.55,2.41,1.7,5,1.7,17.14-.92,16-1.7,17.19-3.37,2.41-11.55,2.41S822,259.13,821.19,258s-1.68-5-1.68-17.19S820.39,224.84,821.19,223.7Z"/><path class="cls-1" d="M810.22,205.91c8.88,0,14.35-1.54,16.71-4.71,1.83-2.46,2.71-9.16,2.71-20.47,0-11.85-.94-18.82-2.86-21.33s-7.37-3.79-16.56-3.79c-9,0-14.36,1.21-16.41,3.68s-3,8.9-3,19.71c0,12.49.89,19.75,2.71,22.2C795.87,204.37,801.33,205.91,810.22,205.91ZM798.66,163.6c.76-1.11,3.37-2.42,11.56-2.42s10.79,1.31,11.55,2.41,1.71,5,1.71,17.14-.94,16.05-1.71,17.18-3.37,2.42-11.55,2.42-10.83-1.33-11.56-2.42-1.7-5-1.7-17.18S797.89,164.72,798.66,163.6Z"/><path class="cls-1" d="M885.71,375.08c0,12.47.88,19.73,2.71,22.21,2.37,3.16,7.83,4.69,16.7,4.69s14.36-1.54,16.71-4.69c1.83-2.48,2.72-9.18,2.72-20.48,0-11.85-.93-18.83-2.86-21.33s-7.38-3.79-16.57-3.79c-9,0-14.35,1.21-16.4,3.69S885.71,364.25,885.71,375.08Zm7.86-15.41c.76-1.1,3.38-2.41,11.55-2.41s10.8,1.31,11.56,2.4,1.7,5,1.7,17.15-.92,16.05-1.7,17.18-3.37,2.41-11.56,2.41-10.79-1.3-11.55-2.41-1.7-5-1.7-17.18.93-16,1.7-17.14Z"/><polygon class="cls-1" points="714.7 289.69 714.7 333.17 721.13 333.17 721.13 283.88 712.56 283.88 699.04 298.55 698.72 298.9 702.85 302.82 714.7 289.69"/><polygon class="cls-1" points="679.8 289.69 679.8 333.17 686.22 333.17 686.22 283.88 677.66 283.88 664.14 298.55 663.81 298.9 667.95 302.82 679.8 289.69"/><polygon class="cls-1" points="809.25 333.17 809.25 283.88 800.67 283.88 787.15 298.55 786.83 298.9 790.97 302.82 802.81 289.69 802.81 333.17 809.25 333.17"/><polygon class="cls-1" points="875.25 298.9 879.39 302.82 891.23 289.69 891.23 333.17 897.67 333.17 897.67 283.88 889.1 283.88 875.58 298.55 875.25 298.9"/><path class="cls-1" d="M735.72,306.77c0,12.47.89,19.74,2.71,22.2,2.36,3.17,7.83,4.71,16.72,4.71s14.34-1.54,16.7-4.71c1.83-2.46,2.73-9.16,2.73-20.47,0-11.84-.94-18.81-2.88-21.34s-7.36-3.78-16.55-3.78c-9,0-14.36,1.2-16.41,3.68S735.72,296,735.72,306.77Zm7.87-15.41c.75-1.1,3.37-2.41,11.56-2.41s10.79,1.31,11.54,2.41,1.7,5,1.7,17.14-.92,16.05-1.71,17.18-3.35,2.42-11.53,2.42-10.81-1.31-11.56-2.42-1.7-5-1.7-17.18S742.81,292.49,743.59,291.36Z"/><path class="cls-1" d="M827,287.06c-2,2.43-3,8.88-3,19.71,0,12.48.89,19.75,2.73,22.2,2.36,3.17,7.82,4.71,16.69,4.71s14.35-1.54,16.72-4.71c1.82-2.45,2.72-9.15,2.72-20.47,0-11.83-.93-18.81-2.87-21.34s-7.37-3.78-16.57-3.78S829.06,284.59,827,287.06Zm28,4.3c.77,1.14,1.7,5,1.7,17.14s-.93,16.05-1.7,17.18-3.36,2.42-11.56,2.42-10.8-1.31-11.55-2.42-1.69-5-1.69-17.18.92-16,1.69-17.14,3.33-2.36,11.48-2.36,10.83,1.26,11.58,2.36Z"/><path class="cls-1" d="M931.54,333.68c8.89,0,14.35-1.54,16.71-4.71,1.83-2.46,2.72-9.16,2.72-20.47,0-11.84-.94-18.81-2.87-21.34s-7.37-3.78-16.56-3.78c-9,0-14.35,1.2-16.41,3.68s-3,8.9-3,19.71c0,12.47.88,19.74,2.72,22.2C917.17,332.09,922.79,333.68,931.54,333.68ZM920,291.36c.76-1.1,3.38-2.41,11.55-2.41s10.8,1.31,11.55,2.41,1.71,5,1.71,17.14-.93,16.05-1.72,17.18-3.35,2.42-11.54,2.42-10.79-1.31-11.55-2.42-1.71-5-1.71-17.18S919.22,292.49,920,291.36Z"/><polygon class="cls-1" points="836.44 855.93 836.12 856.29 840.26 860.21 852.09 847.07 852.09 890.56 858.52 890.56 858.52 841.26 849.96 841.26 836.44 855.93"/><polygon class="cls-1" points="1015.11 890.56 1015.11 841.26 1006.53 841.26 993.01 855.93 992.69 856.29 996.84 860.21 1008.67 847.07 1008.67 890.56 1015.11 890.56"/><polygon class="cls-1" points="1081.44 855.93 1081.12 856.29 1085.25 860.21 1097.1 847.07 1097.1 890.56 1103.53 890.56 1103.53 841.26 1094.96 841.26 1081.44 855.93"/><path class="cls-1" d="M941.58,863.65c0,12.47.89,19.73,2.72,22.21,2.36,3.16,7.83,4.7,16.7,4.7s14.37-1.54,16.72-4.7c1.82-2.47,2.72-9.17,2.72-20.47,0-11.85-.94-18.83-2.88-21.34s-7.36-3.79-16.56-3.79c-9,0-14.35,1.21-16.4,3.69S941.58,852.82,941.58,863.65Zm7.87-15.41c.76-1.09,3.38-2.4,11.55-2.4s10.8,1.31,11.56,2.4,1.69,5,1.69,17.15-.92,16.05-1.69,17.18S969.19,885,961,885s-10.79-1.31-11.55-2.41c-1.12-1.64-1.7-7.43-1.7-17.18s.58-15.52,1.7-17.17Z"/><path class="cls-1" d="M1049.27,840.26c-9,0-14.35,1.21-16.38,3.69s-3,8.87-3,19.7c0,12.49.89,19.75,2.72,22.21,2.36,3.16,7.82,4.7,16.69,4.7s14.36-1.54,16.72-4.7c1.82-2.46,2.72-9.16,2.72-20.47,0-11.85-.94-18.83-2.86-21.34S1058.47,840.26,1049.27,840.26Zm11.56,42.31c-.75,1.1-3.36,2.41-11.56,2.41s-10.79-1.31-11.55-2.41-1.69-5-1.69-17.18.92-16,1.69-17.15,3.38-2.4,11.55-2.4,10.81,1.31,11.56,2.4,1.7,5,1.7,17.15-.92,16.05-1.7,17.18Z"/><path class="cls-1" d="M868.67,1048.3c-9,0-14.34,1.2-16.4,3.68s-3,8.88-3,19.71c0,12.46.89,19.73,2.72,22.2,2.36,3.16,7.83,4.7,16.7,4.7s14.36-1.54,16.71-4.7c1.83-2.47,2.73-9.16,2.73-20.47,0-11.84-.94-18.82-2.87-21.34S877.87,1048.3,868.67,1048.3Zm11.55,42.3c-.75,1.11-3.35,2.42-11.55,2.42s-10.8-1.31-11.55-2.42-1.7-5-1.7-17.18.93-16,1.7-17.14,3.38-2.41,11.55-2.41,10.8,1.31,11.56,2.41,1.69,5,1.69,17.14c0,9.76-.53,15.58-1.7,17.18Z"/><polygon class="cls-1" points="581.02 426.57 581.02 470.06 587.44 470.06 587.44 420.76 578.87 420.76 565.35 435.43 565.03 435.78 569.17 439.7 581.02 426.57"/><polygon class="cls-1" points="599.32 435.28 603.48 439.21 615.31 426.07 615.31 469.56 621.75 469.56 621.75 420.25 613.17 420.25 599.66 434.93 599.32 435.28"/><polygon class="cls-1" points="851.5 469.56 851.5 420.25 842.95 420.25 829.42 434.93 829.09 435.28 833.23 439.21 845.08 426.07 845.08 469.56 851.5 469.56"/><polygon class="cls-1" points="938.75 469.56 938.75 420.25 930.19 420.25 916.67 434.93 916.34 435.28 920.47 439.21 932.32 426.07 932.32 469.56 938.75 469.56"/><path class="cls-1" d="M673.52,423.45c-2,2.43-3,8.88-3,19.7,0,12.47.9,19.73,2.71,22.21,2.37,3.16,7.85,4.7,16.72,4.7s14.34-1.54,16.71-4.7c1.83-2.47,2.72-9.17,2.72-20.47,0-11.85-.93-18.83-2.86-21.34s-7.38-3.79-16.57-3.79C680.93,419.76,675.56,421,673.52,423.45Zm28,4.29c.77,1.13,1.69,5,1.69,17.15s-.92,16-1.69,17.18-3.37,2.41-11.55,2.41-10.81-1.31-11.56-2.41c-1.12-1.65-1.69-7.43-1.69-17.18s.57-15.51,1.69-17.15c.75-1.1,3.37-2.41,11.56-2.41s10.75,1.31,11.5,2.41Z"/><path class="cls-1" d="M533.21,470.06c8.89,0,14.34-1.54,16.71-4.7,1.83-2.47,2.73-9.17,2.73-20.47,0-11.85-1-18.83-2.87-21.34s-7.38-3.79-16.57-3.79c-9,0-14.35,1.21-16.41,3.69s-3,8.88-3,19.7c0,12.47.88,19.73,2.71,22.21C518.87,468.52,524.33,470.06,533.21,470.06Zm-11.55-42.32c.75-1.1,3.37-2.41,11.55-2.41s10.8,1.31,11.56,2.41,1.69,5,1.69,17.15-.92,16-1.69,17.18-3.37,2.41-11.56,2.41-10.8-1.31-11.55-2.41c-1.13-1.65-1.7-7.43-1.7-17.18S520.53,429.38,521.66,427.74Z"/><path class="cls-1" d="M885.69,470.06c8.87,0,14.33-1.54,16.7-4.7,1.83-2.47,2.71-9.17,2.71-20.47,0-11.85-.93-18.83-2.85-21.34s-7.38-3.79-16.56-3.79c-9,0-14.37,1.21-16.42,3.69s-3,8.88-3,19.7c0,12.49.89,19.74,2.73,22.21C871.39,468.52,876.81,470.06,885.69,470.06Zm-11.57-42.32c.76-1.1,3.39-2.41,11.57-2.41s10.79,1.31,11.55,2.41,1.7,5,1.7,17.15-.93,16-1.7,17.18-3.38,2.41-11.55,2.41-10.81-1.31-11.57-2.41-1.73-5.07-1.73-17.18S873.39,428.87,874.12,427.74Z"/><path class="cls-1" d="M972,419.76c-9,0-14.36,1.21-16.4,3.69s-3,8.88-3,19.7c0,12.47.89,19.73,2.72,22.21,2.36,3.16,7.83,4.7,16.7,4.7s14.35-1.54,16.72-4.7c1.81-2.45,2.71-9.15,2.71-20.47,0-11.85-.94-18.83-2.86-21.34S981.22,419.76,972,419.76Zm11.56,42.31c-.75,1.1-3.37,2.41-11.56,2.41s-10.8-1.31-11.56-2.41c-1.12-1.65-1.69-7.43-1.69-17.18s.57-15.51,1.69-17.15c.76-1.1,3.38-2.41,11.56-2.41s10.8,1.31,11.56,2.41,1.69,5,1.69,17.15S984.39,460.93,983.59,462.07Z"/><path class="cls-1" d="M796.67,470.06c8.89,0,14.35-1.54,16.72-4.7,1.82-2.48,2.71-9.18,2.71-20.47,0-11.86-.93-18.84-2.86-21.34s-7.38-3.79-16.57-3.79c-9,0-14.35,1.21-16.4,3.69s-3,8.88-3,19.7c0,12.48.89,19.74,2.72,22.21C782.33,468.52,787.8,470.06,796.67,470.06Zm-11.56-42.32c.77-1.1,3.38-2.41,11.56-2.41s10.8,1.31,11.55,2.41c1.12,1.64,1.69,7.42,1.69,17.15s-.57,15.53-1.69,17.18c-.75,1.1-3.36,2.41-11.55,2.41s-10.8-1.31-11.56-2.41-1.72-5.07-1.72-17.18,1-16,1.72-17.15Z"/><polygon class="cls-1" points="655.46 469.56 655.46 420.25 646.89 420.25 633.37 434.93 633.03 435.28 637.18 439.21 649.02 426.07 649.02 469.56 655.46 469.56"/><path class="cls-1" d="M726.44,465.36c2.36,3.16,7.83,4.7,16.7,4.7s14.36-1.54,16.72-4.7c1.82-2.47,2.72-9.17,2.72-20.47,0-11.85-.94-18.83-2.88-21.34s-7.36-3.79-16.56-3.79c-9,0-14.35,1.21-16.4,3.69s-3,8.88-3,19.7C723.73,455.63,724.61,462.89,726.44,465.36Zm5.15-37.62c.76-1.1,3.38-2.41,11.55-2.41s10.81,1.31,11.56,2.41,1.7,5,1.7,17.15-.92,16-1.71,17.18-3.35,2.41-11.55,2.41-10.8-1.31-11.55-2.41-1.7-5-1.7-17.18S730.81,428.87,731.59,427.74Z"/><path class="cls-1" d="M1006.13,443.15c0,12.47.89,19.74,2.72,22.21,2.37,3.16,7.83,4.7,16.71,4.7s14.34-1.54,16.71-4.7c1.83-2.47,2.71-9.16,2.71-20.47,0-11.85-.93-18.83-2.85-21.34s-7.39-3.79-16.57-3.79c-9,0-14.36,1.21-16.4,3.69S1006.13,432.33,1006.13,443.15Zm7.87-15.41c.77-1.1,3.38-2.41,11.56-2.41s10.79,1.31,11.55,2.41,1.7,5,1.7,17.15-.92,16-1.7,17.18-3.37,2.41-11.55,2.41-10.8-1.31-11.56-2.41c-1.13-1.65-1.7-7.43-1.7-17.18S1012.87,429.38,1014,427.74Z"/><path class="cls-1" d="M827.92,979.1c-9,0-14.36,1.21-16.41,3.69s-3,8.89-3,19.7c0,12.47.89,19.73,2.72,22.21,2.36,3.16,7.83,4.7,16.71,4.7s14.34-1.54,16.71-4.7c1.84-2.48,2.72-9.18,2.72-20.48,0-11.83-.94-18.81-2.87-21.33S837.12,979.1,827.92,979.1Zm11.54,42.3c-.75,1.1-3.35,2.42-11.54,2.42s-10.8-1.32-11.55-2.42-1.71-5-1.71-17.18.93-16,1.71-17.14,3.36-2.4,11.55-2.4,10.79,1.3,11.54,2.4,1.72,5,1.72,17.14-.94,16-1.72,17.18Z"/><path class="cls-1" d="M934.67,979.1c-9,0-14.34,1.21-16.41,3.69s-3,8.87-3,19.7c0,12.47.88,19.74,2.72,22.21,2.36,3.16,7.82,4.7,16.7,4.7s14.34-1.54,16.71-4.7c1.83-2.47,2.72-9.16,2.72-20.48,0-11.84-.94-18.82-2.86-21.33S943.87,979.1,934.67,979.1Zm11.55,42.3c-.75,1.1-3.36,2.42-11.55,2.42s-10.79-1.32-11.55-2.42-1.71-5-1.71-17.18.94-16,1.71-17.13,3.38-2.41,11.55-2.41,10.8,1.3,11.55,2.4,1.7,5,1.7,17.14-.92,16-1.7,17.18Z"/><path class="cls-1" d="M881.14,979.1c-9,0-14.34,1.21-16.4,3.69s-3,8.9-3,19.7c0,12.47.89,19.73,2.72,22.21,2.37,3.16,7.83,4.7,16.7,4.7s14.36-1.54,16.72-4.7c1.83-2.49,2.72-9.18,2.72-20.48,0-11.83-.94-18.81-2.87-21.33S890.39,979.1,881.14,979.1Zm11.55,42.3c-.75,1.1-3.36,2.42-11.55,2.42s-10.79-1.32-11.55-2.42-1.7-5-1.7-17.18.92-16,1.7-17.14,3.37-2.4,11.55-2.4,10.8,1.3,11.55,2.4,1.72,5,1.72,17.14-.94,16-1.72,17.18Z"/><path class="cls-1" d="M1079.67,470.06c8.88,0,14.34-1.54,16.71-4.7,1.83-2.47,2.71-9.16,2.71-20.47,0-11.85-.93-18.82-2.85-21.34s-7.38-3.79-16.57-3.79c-9,0-14.36,1.21-16.4,3.69s-3,8.88-3,19.7c0,12.48.89,19.74,2.72,22.21C1065.33,468.52,1070.8,470.06,1079.67,470.06Zm-11.55-42.32c.76-1.1,3.38-2.41,11.55-2.41s10.79,1.31,11.55,2.41,1.71,5,1.71,17.15-.94,16-1.71,17.18-3.36,2.41-11.55,2.41c-6.57,0-10.46-.81-11.55-2.41-.78-1.14-1.7-5-1.7-17.18S1067.39,428.87,1068.12,427.74Z"/><polygon class="cls-1" points="815.88 495.87 815.88 539.35 822.31 539.35 822.31 490.05 813.75 490.05 800.23 504.71 799.9 505.07 804.04 508.99 815.88 495.87"/><polygon class="cls-1" points="604.59 770.88 597.66 778.4 605.2 778.4 606.74 776.7 606.74 778.4 613.16 778.4 613.16 770.88 604.59 770.88"/><path class="cls-1" d="M692.87,770.38l-6.77,7.35c2.77-.1,5.42-.25,7.93-.46l1-1.07v1c2.25-.21,4.4-.44,6.43-.74V770.4Z"/><polygon class="cls-1" points="1047.54 785.05 1047.22 785.4 1051.35 789.33 1063.2 776.2 1063.2 819.68 1069.62 819.68 1069.62 770.38 1061.06 770.38 1047.54 785.05"/><polygon class="cls-1" points="978.95 819.68 978.95 770.38 970.39 770.38 956.87 785.05 956.54 785.4 960.67 789.33 972.52 776.2 972.52 819.68 978.95 819.68"/><polygon class="cls-1" points="847.82 770.38 834.3 785.05 833.97 785.4 838.1 789.33 849.95 776.2 849.95 819.68 854.42 819.68 854.42 770.38 847.82 770.38"/><path class="cls-1" d="M469.82,769.38c-9,0-14.35,1.21-16.4,3.69s-3,8.88-3,19.71c0,12.47.89,19.73,2.72,22.19,2.37,3.17,7.83,4.71,16.7,4.71s14.35-1.54,16.71-4.71c1.84-2.46,2.72-9.16,2.72-20.47,0-11.84-.93-18.81-2.86-21.33S479,769.38,469.82,769.38Zm11.57,42.31c-.75,1.1-3.36,2.41-11.55,2.41s-10.79-1.31-11.55-2.41c-1.13-1.65-1.7-7.43-1.7-17.19,0-12.12.93-16,1.7-17.14s3.37-2.4,11.55-2.4,10.8,1.3,11.55,2.4,1.71,5,1.71,17.14S482.15,810.55,481.39,811.69Z"/><path class="cls-1" d="M646.74,769.88c-9,0-14.35,1.21-16.4,3.69a11.21,11.21,0,0,0-1.92,4.84h6.49a3.11,3.11,0,0,1,.27-.55c.77-1.1,3.38-2.4,11.56-2.4s10.79,1.3,11.55,2.4c.08.12.15.28.24.45l6.47-.14a11.77,11.77,0,0,0-1.69-4.5C661.39,771.13,655.94,769.88,646.74,769.88Z"/><path class="cls-1" d="M1030,815.49c1.83-2.47,2.72-9.17,2.72-20.47,0-11.84-.93-18.82-2.85-21.35s-7.4-3.79-16.58-3.79c-9,0-14.35,1.21-16.4,3.69s-3,8.88-3,19.71c0,12.47.89,19.74,2.72,22.21,2.37,3.15,7.83,4.69,16.7,4.69S1027.62,818.64,1030,815.49Zm-28.26-3.3c-1.13-1.65-1.7-7.43-1.7-17.17s.57-15.51,1.7-17.15c.76-1.1,3.39-2.41,11.55-2.41s10.79,1.31,11.55,2.4c1.14,1.65,1.71,7.42,1.71,17.16s-.57,15.52-1.71,17.17c-.76,1.1-3.37,2.41-11.55,2.41s-10.79-1.31-11.55-2.41Z"/><polygon class="cls-1" points="1135.93 785.05 1135.61 785.4 1139.75 789.33 1151.59 776.2 1151.59 819.68 1158.02 819.68 1158.02 770.38 1149.46 770.38 1135.93 785.05"/><path class="cls-1" d="M1104.08,769.88c-9,0-14.36,1.21-16.41,3.69s-3,8.88-3,19.71c0,12.47.88,19.73,2.71,22.21,2.37,3.15,7.83,4.69,16.71,4.69s14.34-1.54,16.71-4.69c1.82-2.47,2.72-9.17,2.72-20.47,0-11.84-.94-18.82-2.86-21.35S1113.27,769.88,1104.08,769.88Zm11.55,42.31c-.76,1.1-3.37,2.41-11.55,2.41s-10.8-1.31-11.56-2.41-1.7-5-1.7-17.17.93-16,1.7-17.15,3.39-2.41,11.56-2.41,10.79,1.31,11.55,2.4,1.7,5,1.7,17.16S1116.39,811.05,1115.63,812.19Z"/><polygon class="cls-1" points="613.56 566.15 613.56 609.64 619.99 609.64 619.99 560.33 611.41 560.33 597.91 575.01 597.58 575.36 601.71 579.29 613.56 566.15"/><polygon class="cls-1" points="647.86 566.15 647.86 609.64 654.28 609.64 654.28 560.33 645.72 560.33 632.21 575.01 631.88 575.36 636.01 579.29 647.86 566.15"/><polygon class="cls-1" points="434.88 565.65 434.88 609.14 441.3 609.14 441.3 559.84 432.73 559.84 419.22 574.51 418.89 574.86 423.03 578.79 434.88 565.65"/><polygon class="cls-1" points="400.53 565.65 400.53 609.14 406.95 609.14 406.95 559.84 398.39 559.84 384.87 574.51 384.54 574.86 388.68 578.79 400.53 565.65"/><polygon class="cls-1" points="830.39 609.14 830.39 559.84 821.83 559.84 808.31 574.51 807.98 574.86 812.12 578.79 823.96 565.65 823.96 609.14 830.39 609.14"/><polygon class="cls-1" points="948.98 574.51 948.65 574.86 952.79 578.79 964.64 565.65 964.64 609.14 971.06 609.14 971.06 559.84 962.5 559.84 948.98 574.51"/><polygon class="cls-1" points="983.87 574.51 983.55 574.86 987.69 578.79 999.54 565.65 999.54 609.14 1005.96 609.14 1005.96 559.84 997.4 559.84 983.87 574.51"/><path class="cls-1" d="M1059.39,584.46c0-11.84-.94-18.81-2.87-21.33s-7.36-3.79-16.56-3.79c-9,0-14.36,1.21-16.39,3.68s-3,8.89-3,19.71c0,12.48.9,19.74,2.72,22.21,2.37,3.16,7.83,4.7,16.71,4.7s14.34-1.54,16.71-4.7C1058.53,602.47,1059.39,595.78,1059.39,584.46Zm-7.87,17.18c-.76,1.1-3.38,2.42-11.56,2.42s-10.8-1.32-11.56-2.42-1.69-5-1.69-17.18.92-16,1.69-17.13,3.39-2.41,11.56-2.41,10.8,1.3,11.56,2.4c1.12,1.65,1.69,7.41,1.69,17.14s-.53,15.54-1.65,17.18Z"/><path class="cls-1" d="M1215.65,609.64c8.88,0,14.34-1.54,16.71-4.7,1.83-2.47,2.71-9.16,2.71-20.48,0-11.84-.93-18.81-2.85-21.33s-7.38-3.79-16.57-3.79c-9,0-14.36,1.21-16.4,3.68s-3,8.89-3,19.71c0,12.48.89,19.74,2.72,22.21C1201.31,608.1,1206.78,609.64,1215.65,609.64Zm-11.56-42.32c.76-1.1,3.37-2.4,11.56-2.4s10.8,1.3,11.55,2.4,1.7,5,1.7,17.14-.92,16-1.69,17.18-3.39,2.42-11.56,2.42-10.8-1.32-11.56-2.42c-1.13-1.63-1.69-7.41-1.69-17.18S1203,569,1204.09,567.32Z"/><polygon class="cls-1" points="432.97 679.42 439.4 679.42 439.4 630.13 430.84 630.13 417.32 644.79 416.99 645.14 421.13 649.07 432.97 635.94 432.97 679.42"/><polygon class="cls-1" points="942.81 926.31 942.49 926.66 946.62 930.59 958.46 917.46 958.46 960.94 964.9 960.94 964.9 911.64 956.33 911.64 942.81 926.31"/><polygon class="cls-1" points="977.12 926.31 976.79 926.66 980.92 930.59 992.77 917.46 992.77 960.94 999.2 960.94 999.2 911.64 990.64 911.64 977.12 926.31"/><polygon class="cls-1" points="1011.72 926.31 1011.39 926.66 1015.53 930.59 1027.37 917.46 1027.37 960.94 1033.79 960.94 1033.79 911.64 1025.24 911.64 1011.72 926.31"/><polygon class="cls-1" points="984.82 629.62 971.3 644.3 970.97 644.65 975.12 648.57 986.96 635.44 986.96 662.06 993.38 662.06 993.38 629.62 984.82 629.62"/><polygon class="cls-1" points="1222.54 644.3 1222.21 644.65 1226.35 648.57 1238.19 635.44 1238.19 678.92 1244.63 678.92 1244.63 629.62 1236.06 629.62 1222.54 644.3"/><path class="cls-1" d="M332.66,629.13c-9,0-14.35,1.21-16.4,3.68s-3,8.88-3,19.71c0,12.47.89,19.74,2.72,22.21,2.36,3.16,7.83,4.69,16.7,4.69s14.35-1.53,16.71-4.69c1.83-2.47,2.73-9.17,2.73-20.47,0-11.85-.94-18.83-2.87-21.35S341.86,629.13,332.66,629.13Zm11.56,42.31c-.76,1.09-3.37,2.4-11.56,2.4s-10.79-1.31-11.55-2.4-1.7-5.05-1.7-17.18.93-16,1.7-17.15,3.39-2.41,11.55-2.41,10.8,1.31,11.56,2.41,1.7,5,1.7,17.15S345,670.3,344.22,671.44Z"/><path class="cls-1" d="M403.39,674.73c1.83-2.48,2.73-9.18,2.73-20.47,0-11.85-.95-18.83-2.87-21.35s-7.36-3.78-16.57-3.78c-9,0-14.35,1.21-16.4,3.68s-3,8.88-3,19.71c0,12.47.88,19.74,2.72,22.21,2.36,3.16,7.82,4.69,16.7,4.69S401,677.89,403.39,674.73Zm-28.26-3.29c-.77-1.14-1.7-5.05-1.7-17.18s.93-16,1.7-17.15,3.38-2.41,11.55-2.41,10.71,1.3,11.51,2.41,1.7,5,1.7,17.15-.92,16-1.71,17.18-3.36,2.4-11.55,2.4-10.79-1.31-11.55-2.4Z"/><path class="cls-1" d="M803.75,679.42c8.88,0,14.34-1.53,16.71-4.69,1.83-2.47,2.71-9.17,2.71-20.47,0-11.85-.94-18.83-2.85-21.35s-7.38-3.78-16.57-3.78c-9,0-14.36,1.21-16.41,3.68s-3,8.88-3,19.71c0,12.12.84,19.27,2.57,21.94l.37.46C789.71,677.93,795.08,679.42,803.75,679.42Zm-11.57-42.31c.78-1.1,3.39-2.41,11.57-2.41s10.79,1.31,11.55,2.41,1.7,5,1.7,17.15-.93,16-1.7,17.18-3.38,2.4-11.55,2.4-10.8-1.31-11.57-2.4-1.69-5-1.69-17.18S791.39,638.25,792.18,637.11Z"/><path class="cls-1" d="M1025.21,629.62l-13.52,14.68-.32.35,4.14,3.92,11.88-13.13v25.43c2.24-.23,4.37-.49,6.41-.77V629.62Z"/><path class="cls-1" d="M958.91,632.91c-2-2.54-7.37-3.78-16.56-3.78-9,0-14.37,1.21-16.41,3.68s-3,8.88-3,19.71c0,3.64.09,6.78.25,9.54h6.1c-.11-2.23-.18-4.81-.18-7.8,0-9.74.58-15.51,1.7-17.15.76-1.1,3.39-2.41,11.56-2.41s10.79,1.31,11.56,2.41,1.69,5,1.69,17.15c0,3.12-.06,5.68-.16,7.8h6.16c.11-2.31.18-4.89.18-7.8C961.78,642.41,960.84,635.43,958.91,632.91Z"/><path class="cls-1" d="M1191.12,629.13c-9,0-14.36,1.21-16.4,3.68s-3,8.88-3,19.71c0,12.47.88,19.74,2.71,22.21,2.37,3.16,7.83,4.69,16.71,4.69s14.34-1.53,16.71-4.69c1.82-2.47,2.72-9.16,2.72-20.47,0-11.85-.94-18.83-2.86-21.35S1200.31,629.13,1191.12,629.13Zm11.57,42.3c-.77,1.1-3.39,2.41-11.57,2.41s-10.8-1.31-11.56-2.4c-1.12-1.65-1.69-7.43-1.69-17.18s.57-15.51,1.69-17.15c.76-1.1,3.39-2.41,11.56-2.41s10.79,1.31,11.56,2.41,1.69,5,1.69,17.15-.91,16-1.68,17.17Z"/><path class="cls-1" d="M1296.24,632.91c-2-2.54-7.38-3.78-16.57-3.78-9,0-14.36,1.21-16.4,3.68s-3,8.88-3,19.71c0,12.47.89,19.74,2.73,22.21,2.37,3.16,7.83,4.69,16.7,4.69s14.34-1.53,16.71-4.69c1.83-2.47,2.72-9.16,2.72-20.47C1299.1,642.41,1298.16,635.43,1296.24,632.91Zm-5,38.52c-.76,1.1-3.38,2.41-11.56,2.41s-10.79-1.31-11.56-2.4c-1.12-1.65-1.69-7.43-1.69-17.18s.57-15.51,1.69-17.15c.77-1.1,3.38-2.41,11.56-2.41s10.79,1.31,11.55,2.41,1.71,5,1.71,17.15-.94,16-1.71,17.17Z"/><polygon class="cls-1" points="734.63 1029.4 741.06 1029.4 741.06 980.09 732.5 980.09 718.97 994.77 718.65 995.12 722.79 999.05 734.63 985.91 734.63 1029.4"/><path class="cls-1" d="M687.56,979.1c-9,0-14.36,1.21-16.4,3.69s-3,8.88-3,19.7c0,12.47.89,19.74,2.71,22.21,2.37,3.16,7.84,4.7,16.72,4.7s14.34-1.54,16.71-4.7c1.83-2.47,2.71-9.16,2.71-20.48,0-11.84-.94-18.82-2.85-21.33S696.74,979.1,687.56,979.1Zm11.55,42.3c-.76,1.1-3.37,2.42-11.55,2.42s-10.81-1.32-11.56-2.42c-1.13-1.64-1.7-7.42-1.7-17.18s.57-15.5,1.7-17.14c.75-1.1,3.37-2.4,11.56-2.4s10.79,1.3,11.55,2.4,1.7,5,1.7,17.14-.93,16-1.7,17.18Z"/><path class="cls-1" d="M795.25,1004.22c0-11.84-.94-18.81-2.87-21.33s-7.36-3.79-16.55-3.79c-9,0-14.37,1.21-16.41,3.69s-3,8.89-3,19.7c0,12.48.9,19.74,2.72,22.21,2.36,3.16,7.83,4.7,16.72,4.7s14.33-1.54,16.7-4.7C794.39,1022.23,795.25,1015.54,795.25,1004.22Zm-7.86,17.18c-.76,1.1-3.38,2.42-11.55,2.42s-10.81-1.32-11.57-2.42c-1.12-1.62-1.68-7.4-1.68-17.18s.56-15.51,1.68-17.13c.76-1.11,3.38-2.41,11.57-2.41s10.79,1.3,11.55,2.4,1.69,5,1.69,17.14S788.15,1020.27,787.39,1021.4Z"/><polygon class="cls-1" points="755.47 960.94 755.47 911.64 746.91 911.64 733.39 926.31 733.06 926.66 737.2 930.59 749.04 917.46 749.04 960.94 755.47 960.94"/><polygon class="cls-1" points="790.07 960.94 790.07 911.64 781.51 911.64 767.98 926.31 767.66 926.66 771.79 930.59 783.64 917.46 783.64 960.94 790.07 960.94"/><polygon class="cls-1" points="855.92 926.66 860.06 930.59 871.91 917.46 871.91 960.94 878.33 960.94 878.33 911.64 869.78 911.64 856.24 926.31 855.92 926.66"/><polygon class="cls-1" points="645.41 926.31 645.07 926.66 649.22 930.59 661.06 917.46 661.06 960.94 667.49 960.94 667.49 911.64 658.92 911.64 645.41 926.31"/><path class="cls-1" d="M613.71,910.65c-9,0-14.37,1.21-16.4,3.68s-3,8.88-3,19.7c0,12.48.89,19.74,2.71,22.21,2.37,3.17,7.84,4.7,16.72,4.7s14.34-1.53,16.71-4.7c1.81-2.47,2.71-9.17,2.71-20.47,0-11.85-.94-18.83-2.86-21.34S622.89,910.65,613.71,910.65ZM625.25,953c-.75,1.1-3.37,2.41-11.54,2.41S602.9,954.1,602.14,953s-1.69-5-1.69-17.18.91-16,1.69-17.14,3.39-2.41,11.57-2.41,10.79,1.31,11.54,2.4,1.7,5,1.7,17.15S626,951.82,625.25,953Z"/><path class="cls-1" d="M718.39,914.43c-2-2.55-7.38-3.78-16.57-3.78-9,0-14.36,1.21-16.4,3.68s-3,8.88-3,19.7c0,12.48.88,19.74,2.71,22.21,2.37,3.17,7.83,4.7,16.71,4.7s14.34-1.53,16.71-4.7c1.83-2.46,2.72-9.15,2.72-20.47C721.25,923.92,720.3,916.94,718.39,914.43Zm-5,38.57c-.76,1.1-3.37,2.41-11.55,2.41S691,954.1,690.28,953c-1.12-1.65-1.7-7.42-1.7-17.18s.58-15.5,1.7-17.14c.76-1.1,3.38-2.41,11.56-2.41s10.79,1.31,11.55,2.4,1.7,5,1.7,17.15S714.15,951.82,713.39,953Z"/><path class="cls-1" d="M808.44,914.33c-2,2.44-3,8.88-3,19.7,0,12.48.89,19.74,2.72,22.21,2.37,3.17,7.82,4.7,16.7,4.7s14.35-1.54,16.72-4.7c1.82-2.46,2.71-9.15,2.71-20.47,0-11.85-.93-18.82-2.85-21.34s-7.4-3.78-16.58-3.78S810.48,911.86,808.44,914.33Zm27.95,4.29c.78,1.14,1.7,5,1.7,17.15s-.93,16.05-1.7,17.23-3.36,2.41-11.54,2.41-10.79-1.31-11.56-2.41-1.7-5-1.7-17.18.92-16,1.7-17.14,3.38-2.41,11.56-2.41S835.63,917.53,836.39,918.62Z"/><path class="cls-1" d="M932.53,935.77c0-11.84-.93-18.82-2.86-21.34s-7.38-3.78-16.57-3.78c-9,0-14.35,1.21-16.4,3.68s-3,8.87-3,19.7c0,12.48.89,19.74,2.72,22.21,2.37,3.17,7.83,4.7,16.7,4.7s14.35-1.54,16.72-4.7C931.64,953.78,932.53,947.09,932.53,935.77ZM924.65,953c-.75,1.1-3.37,2.41-11.55,2.41s-10.8-1.31-11.56-2.41-1.7-5-1.7-17.18.92-16,1.7-17.14,3.39-2.41,11.56-2.41,10.8,1.31,11.55,2.4,1.7,5,1.7,17.15S925.39,951.82,924.65,953Z"/><polygon class="cls-1" points="794.73 1098.01 801.15 1098.01 801.15 1048.7 792.59 1048.7 779.06 1063.38 778.74 1063.73 782.89 1067.66 794.73 1054.52 794.73 1098.01"/><polygon class="cls-1" points="813.37 1063.38 813.05 1063.73 817.19 1067.66 829.03 1054.52 829.03 1098.01 835.45 1098.01 835.45 1048.7 826.89 1048.7 813.37 1063.38"/><path class="cls-1" d="M749.39,1047.71c-9,0-14.35,1.21-16.4,3.68s-3,8.88-3,19.71c0,12.47.89,19.74,2.72,22.21,2.38,3.16,7.84,4.7,16.71,4.7s14.34-1.54,16.71-4.7c1.83-2.47,2.72-9.17,2.72-20.48,0-11.84-.94-18.82-2.86-21.33S758.55,1047.71,749.39,1047.71Zm11.55,42.3c-.76,1.11-3.37,2.42-11.55,2.42s-10.79-1.31-11.55-2.42-1.71-5-1.71-17.18.92-16,1.71-17.14,3.37-2.41,11.55-2.41,10.79,1.31,11.55,2.4,1.7,5,1.7,17.15-1,16-1.73,17.17Z"/><path class="cls-1" d="M810.83,1116.61c-9,0-14.35,1.21-16.4,3.68s-3,8.88-3,19.71c0,12.48.9,19.74,2.73,22.21,2.37,3.16,7.82,4.69,16.7,4.69s14.35-1.54,16.72-4.69c1.82-2.47,2.71-9.16,2.71-20.47,0-11.85-.94-18.83-2.85-21.35S820,1116.61,810.83,1116.61Zm11.54,42.3c-.74,1.1-3.35,2.42-11.54,2.42s-10.79-1.32-11.56-2.42-1.7-5-1.7-17.17.92-16,1.7-17.15,3.38-2.41,11.56-2.41,10.8,1.31,11.55,2.41c1.13,1.64,1.7,7.42,1.7,17.15s-.57,15.53-1.69,17.17Z"/><polygon class="cls-1" points="852.39 748.71 852.39 699.41 843.82 699.41 830.3 714.09 829.98 714.44 834.12 718.36 845.96 705.23 845.96 748.71 852.39 748.71"/><polygon class="cls-1" points="1182.13 714.09 1181.81 714.44 1185.95 718.36 1197.78 705.23 1197.78 748.71 1204.22 748.71 1204.22 699.41 1195.65 699.41 1182.13 714.09"/><polygon class="cls-1" points="1215.26 714.09 1214.92 714.44 1219.06 718.36 1230.9 705.23 1230.9 748.71 1237.34 748.71 1237.34 699.41 1228.77 699.41 1215.26 714.09"/><path class="cls-1" d="M396.39,698.92c-9,0-14.35,1.2-16.4,3.68s-3,8.89-3,19.71c0,12.47.89,19.74,2.72,22.2,2.36,3.17,7.83,4.7,16.7,4.7s14.34-1.54,16.71-4.7c1.83-2.46,2.72-9.16,2.72-20.47,0-11.84-.93-18.81-2.86-21.34S405.53,698.92,396.39,698.92Zm11.55,42.3c-.75,1.11-3.36,2.42-11.55,2.42s-10.8-1.31-11.55-2.42c-1.13-1.64-1.7-7.42-1.7-17.18,0-12.12.93-16,1.7-17.14s3.37-2.41,11.55-2.41,10.8,1.31,11.55,2.41,1.71,5,1.71,17.14-1,16.05-1.76,17.18Z"/><path class="cls-1" d="M468.39,724c0-11.84-.93-18.81-2.86-21.34s-7.38-3.78-16.57-3.78c-9,0-14.35,1.2-16.4,3.68s-3,8.88-3,19.71c0,12.47.89,19.73,2.72,22.2,2.38,3.17,7.84,4.7,16.71,4.7s14.35-1.54,16.71-4.7C467.52,742.05,468.39,735.35,468.39,724Zm-7.88,17.18c-.75,1.11-3.36,2.42-11.55,2.42s-10.79-1.31-11.56-2.42c-1.12-1.64-1.69-7.42-1.69-17.18,0-12.12.92-16,1.69-17.14s3.38-2.41,11.56-2.41,10.8,1.31,11.55,2.41,1.7,5,1.7,17.14-.9,16.09-1.68,17.22Z"/><path class="cls-1" d="M822.77,885.86c1.82-2.46,2.71-9.16,2.71-20.47,0-11.84-.93-18.82-2.86-21.34s-7.38-3.79-16.56-3.79a59.17,59.17,0,0,0-8.72.61c-4,.62-6.49,1.62-7.69,3.08-1.72,2.06-2.68,7-2.94,15.08-.05,1.45-.08,3-.08,4.62,0,12.48.89,19.75,2.73,22.21,2.36,3.16,7.82,4.7,16.7,4.7S820.39,889,822.77,885.86Zm-28.27-3.29c-1.13-1.64-1.7-7.42-1.7-17.18,0-8.12.41-13.51,1.19-15.95.14-.24.26-.5.39-.76s.19-.4.24-.52c1.23-1.54,5.07-2.32,11.44-2.32,8.18,0,10.79,1.31,11.55,2.4s1.7,5,1.7,17.15-.93,16.05-1.7,17.18S814.24,885,806.06,885,795.26,883.67,794.5,882.57Z"/><path class="cls-1" d="M1129.25,495.87v25.51a115,115,0,0,1,6,18h.38v-49.3h-8.57l-10.72,11.58c1.3,1.34,2.54,2.79,3.75,4.3Z"/><polygon class="cls-1" points="1165.42 495.87 1165.42 539.35 1171.84 539.35 1171.84 490.05 1163.28 490.05 1150.39 504.03 1149.43 505.07 1153.58 508.99 1165.42 495.87"/><path class="cls-1" d="M780.21,497.53c.55.81,1.17,3.07,1.49,8.57A69.06,69.06,0,0,1,788,519.05v-4.37c0-11.85-.93-18.83-2.85-21.35s-7.38-3.79-16.57-3.79c-1.62,0-3,.09-4.37.17a52.6,52.6,0,0,1,8.12,5.53C777.64,495.58,779.58,496.63,780.21,497.53Z"/><polygon class="cls-1" points="465.62 495.87 465.62 539.35 472.05 539.35 472.05 490.05 463.48 490.05 449.64 505.07 453.77 508.99 465.62 495.87"/><path class="cls-1" d="M925,775.46c8.17,0,10.79,1.31,11.56,2.4s1.69,5,1.69,17.16-.92,16-1.69,17.17-3.38,2.41-11.56,2.41h-2.25v5.51c.77,0,1.42.11,2.25.11,8.87,0,14.34-1.54,16.71-4.69,1.56-2.11,2.43-7.3,2.66-15.87,0-1.45.06-3,.06-4.6s0-3.22-.06-4.71c-.24-9-1.15-14.48-2.81-16.64-2-2.54-7.37-3.79-16.56-3.79-.83,0-1.47.06-2.25.08v5.54C923.47,775.47,924.19,775.46,925,775.46Z"/><path class="cls-1" d="M689.16,609.64c8.88,0,14.34-1.54,16.71-4.7,1.82-2.47,2.72-9.17,2.72-20.48a97.74,97.74,0,0,0-1-15.94,13.3,13.3,0,0,0-1.87-5.39c-1.25-1.64-4.09-2.72-8.68-3.3a61.18,61.18,0,0,0-7.88-.49c-9,0-14.37,1.21-16.4,3.68s-3,8.88-3,19.71c0,12.48.9,19.73,2.71,22.21C674.81,608.1,680.28,609.64,689.16,609.64ZM677.6,567.32c.75-1.1,3.37-2.4,11.56-2.4s10.8,1.3,11.54,2.4,1.7,5,1.7,17.14-.92,16-1.7,17.18-3.36,2.42-11.54,2.42-10.81-1.32-11.56-2.42-1.7-5-1.7-17.18S676.82,568.46,677.6,567.32Z"/><path class="cls-1" d="M585,584.46c0-11.84-.93-18.82-2.86-21.33a6.94,6.94,0,0,0-2.61-1.84v45.87a8.45,8.45,0,0,0,2.75-2.22C584.08,602.47,585,595.77,585,584.46Z"/><path class="cls-1" d="M456.93,582.73c0,12.47.9,19.73,2.73,22.21,2.37,3.16,7.83,4.7,16.71,4.7h.88c8.4-.11,13.57-1.63,15.83-4.65,1.83-2.48,2.72-9.18,2.72-20.48,0-11.85-.94-18.82-2.86-21.33s-7-3.66-15.7-3.76h-.87c-9,0-14.35,1.21-16.41,3.68S456.93,571.92,456.93,582.73Zm7.88-15.41c.76-1.1,3.37-2.4,11.56-2.4h.86c7.57.1,10,1.34,10.69,2.37,1.12,1.65,1.69,7.41,1.69,17.14s-.57,15.54-1.7,17.18c-.69,1-3.11,2.29-10.68,2.39h-.86c-8.18,0-10.8-1.32-11.56-2.42s-1.7-5-1.7-17.18S464,568.46,464.81,567.32Z"/><path class="cls-1" d="M851.75,601.64c-.77-1.13-1.68-5-1.68-17.18s.91-16,1.68-17.13a4.66,4.66,0,0,1,2.67-1.48V560c-3.74.57-6.3,1.54-7.5,3-2,2.45-3,8.89-3,19.71,0,12.48.89,19.74,2.72,22.21,1.39,1.86,4,3.09,7.81,3.83v-5.64A4.67,4.67,0,0,1,851.75,601.64Z"/><path class="cls-1" d="M764.2,652.2V657a67.36,67.36,0,0,1,6.09,3.14c.05-1.8.1-3.71.1-5.83,0-4.25-.13-8-.39-11.06a46.61,46.61,0,0,0-.77-5.64,61.28,61.28,0,0,1-5.62,3.71A97.37,97.37,0,0,1,764.2,652.2Z"/><path class="cls-1" d="M1054.86,654.26c0-9.74.56-15.51,1.68-17.15.78-1.1,3.39-2.41,11.57-2.41h.45c.47-1.72.87-3.58,1.25-5.52-.6,0-1.06-.06-1.7-.06-9,0-14.36,1.21-16.4,3.68s-3,8.88-3,19.71v4.31a42.8,42.8,0,0,0,6.14-2.47Z"/><polygon class="cls-1" points="622.95 713.22 621.35 714.94 625.49 718.87 637.34 705.73 637.34 749.21 643.75 749.21 643.75 699.91 635.18 699.91 622.95 713.22"/><polygon class="cls-1" points="1149.75 714.09 1149.43 714.44 1153.56 718.36 1165.41 705.23 1165.41 748.71 1171.84 748.71 1171.84 699.41 1163.28 699.41 1149.75 714.09"/><path class="cls-1" d="M694.89,702.6c-1.56,1.88-2.49,6.12-2.84,13-.11,2.06-.16,4.33-.16,6.74,0,12.48.88,19.75,2.71,22.2,2.36,3.17,7.82,4.7,16.7,4.7s14.35-1.54,16.71-4.7a3,3,0,0,0,.26-.42l.09-.18c1.6-2.84,2.37-9.34,2.37-19.87,0-11.85-.94-18.82-2.86-21.34S720.48,699,711.3,699C702.32,698.92,697,700.12,694.89,702.6Zm28,4.31c.78,1.12,1.7,5,1.7,17.13,0,3.53-.08,6.6-.24,9.13-.27,4.33-.76,7-1.47,8.05s-3.34,2.42-11.54,2.42-10.8-1.31-11.55-2.42-1.7-5-1.7-17.18c0-2.69,0-5.26.17-7.64.3-6.44,1-8.72,1.53-9.5.76-1.1,3.38-2.41,11.55-2.41s10.76,1.31,11.51,2.42Z"/><path class="cls-1" d="M70,1514.81H28.33v-97.75H66.92c20.41,0,27.89,8.22,27.89,21.43v10c0,7-3.08,12-10.86,15.41A18.48,18.48,0,0,1,98.34,1482v9.55C98.34,1505.27,89.57,1514.81,70,1514.81Zm2.79-73.09c0-4.25-2.64-6.9-8.81-6.9H50.34v22.31H64c5.87,0,8.81-2.93,8.81-6.9Zm3.52,40.8c0-5.43-3.37-8.21-9.25-8.21H50.34v22.74H64c6.9,0,12.33-1.47,12.33-8.51Z"/><path class="cls-1" d="M173.57,1486.63v28.18h-22v-28.18l-30.38-69.57h23l18.38,45.35,18.35-45.35h23Z"/><path class="cls-1" d="M279,1436.58v78.23H257v-78.23H230.72v-19.52h74.55v19.52Z"/><path class="cls-1" d="M337.16,1514.81v-97.75h61.5v19.52H359.18v17.93h36.39V1474h-36.4v21.28h39.48v19.52Z"/><path class="cls-1" d="M526.29,1485.16H509.57v29.65h-22v-97.75h39.92c23.78,0,32.58,9.39,32.58,27.74v12.77C560.05,1475.92,550.07,1485.16,526.29,1485.16Zm11.74-38.3c0-7-2.49-10.28-11.74-10.28H509.57v29.5H526.3c9.69,0,11.74-3.67,11.74-10.71Z"/><path class="cls-1" d="M666.81,1417.06v69.28c0,14.83-9.24,29.94-36.84,29.94s-36.83-15.11-36.83-29.94v-69.28h22v67.22c0,7.93,3.82,12.48,14.82,12.48s14.83-4.55,14.83-12.48v-67.22Z"/><path class="cls-1" d="M734.39,1516.28c-11.3,0-23.19-2.49-31.56-6.31l3.67-17a93.11,93.11,0,0,0,28.18,4.7c11.31,0,13.5-2.2,13.5-10.42,0-8.81-.44-9.83-16.43-13.36-23.63-5.14-27.16-9.83-27.16-31,0-19.51,6.9-27.3,33.76-27.3a142.09,142.09,0,0,1,29.65,3.23l-2.2,18.5c-11.16-1.91-18.35-2.79-27.15-2.79-9.84,0-12,1.76-12,9,0,9.4.44,9.54,15.85,13.21,26.42,6.31,27.74,11.45,27.74,30.68S763.89,1516.28,734.39,1516.28Z"/><path class="cls-1" d="M859.79,1514.81v-39.3H828.23v39.3h-22v-97.75h22V1456h31.56v-38.89h22v97.75Z"/><path class="cls-1" d="M921.5,1514.81v-97.75H983v19.52H943.51v17.93h36.4V1474h-36.4v21.28H983v19.52Z"/><path class="cls-1" d="M1055.41,1484.43h-12.92v30.38h-22v-97.75h40.65c23.79,0,32.59,9.39,32.59,27.74v12c0,12.18-4.41,20.4-14.24,24.51l23.64,33.46H1077Zm16.29-37.57c0-7.34-2.79-10.28-11.74-10.28h-17.47v28.77H1060c9.4,0,11.74-3.37,11.74-10.72Z"/><path class="cls-1" d="M1164.08,1516.28c-11.3,0-23.18-2.49-31.55-6.31l3.67-17a92.8,92.8,0,0,0,28.18,4.7c11.29,0,13.5-2.2,13.5-10.42,0-8.81-.44-9.83-16.44-13.36-23.63-5.14-27.15-9.83-27.15-31,0-19.51,6.89-27.3,33.76-27.3a142.09,142.09,0,0,1,29.65,3.23l-2.21,18.5c-11.15-1.91-18.35-2.79-27.15-2.79-9.84,0-12,1.76-12,9,0,9.4.44,9.54,15.86,13.21,26.41,6.31,27.74,11.45,27.74,30.68S1193.57,1516.28,1164.08,1516.28Z"/><path class="cls-1" d="M1244,1536.68l-9.55-5.43,8.36-16.44h-7v-24.36H1257v25.83Z"/><path class="cls-1" d="M1348.69,1514.81v-97.75h22v97.75Z"/><path class="cls-1" d="M1432.09,1450.51v64.3h-21v-97.75h27l32.15,67.37v-67.37h21v97.75h-27.16Z"/><path class="cls-1" d="M1550.75,1482.81c0,8.52,2.8,13.51,13.65,13.51a161.86,161.86,0,0,0,25.25-2.35l3.09,19.23a131.7,131.7,0,0,1-28.34,3.08c-24.66,0-35.66-12.18-35.66-29.94v-40.83c0-17.76,11-29.94,35.66-29.94a131.71,131.71,0,0,1,28.34,3.09l-3.09,19.22a161.86,161.86,0,0,0-25.25-2.35c-10.85,0-13.65,5-13.65,13.51Z"/></svg>