<svg id="Layer_1" data-name="Layer 1" xmlns="http://www.w3.org/2000/svg" viewBox="0 0 253.7 18.94"><title>bytePushersLogoWithoutText-10</title><path d="M6.52,15.52H0V.23H6c3.19,0,4.36,1.28,4.36,3.35V5.14A2.43,2.43,0,0,1,8.7,7.55,2.89,2.89,0,0,1,11,10.37v1.5C11,14,9.57,15.52,6.52,15.52ZM7,4.09C7,3.42,6.54,3,5.58,3H3.44V6.5H5.58C6.5,6.5,7,6,7,5.42Zm.55,6.38c0-.85-.52-1.29-1.44-1.29H3.44v3.56H5.58c1.08,0,1.92-.23,1.92-1.33Z"/><path d="M22.71,11.11v4.41H19.27V11.11L14.51.23h3.61L21,7.32,23.86.23h3.6Z"/><path d="M39.2,3.28V15.52H35.76V3.28H31.65v-3H43.31V3.28Z"/><path d="M48.3,15.52V.23h9.61V3.28H51.74v2.8h5.69V9.14H51.74v3.32h6.17v3.06Z"/><path d="M77.87,10.88H75.26v4.64H71.82V.23h6.24c3.72,0,5.09,1.47,5.09,4.34v2C83.15,9.43,81.59,10.88,77.87,10.88Zm1.84-6c0-1.1-.39-1.61-1.84-1.61H75.26V7.9h2.61c1.52,0,1.84-.58,1.84-1.68Z"/><path d="M99.85.23V11.06c0,2.32-1.45,4.69-5.76,4.69s-5.76-2.37-5.76-4.69V.23h3.44V10.74c0,1.24.6,1.95,2.32,1.95s2.32-.71,2.32-1.95V.23Z"/><path d="M110.42,15.75a12.56,12.56,0,0,1-4.94-1l.58-2.66a14.7,14.7,0,0,0,4.4.73c1.77,0,2.12-.34,2.12-1.63s-.07-1.54-2.58-2.09c-3.69-.8-4.24-1.54-4.24-4.84,0-3,1.08-4.27,5.28-4.27a22.61,22.61,0,0,1,4.63.5l-.34,2.9A23.23,23.23,0,0,0,111.08,3c-1.53,0-1.88.28-1.88,1.4,0,1.47.07,1.49,2.48,2.07,4.13,1,4.34,1.79,4.34,4.79S115,15.75,110.42,15.75Z"/><path d="M130,15.52V9.36h-4.94v6.16h-3.44V.23h3.44V6.31H130V.23h3.44V15.52Z"/><path d="M139.68,15.52V.23h9.62V3.28h-6.18v2.8h5.69V9.14h-5.69v3.32h6.18v3.06Z"/><path d="M160.62,10.77h-2v4.75h-3.44V.23h6.36c3.72,0,5.09,1.47,5.09,4.34V6.45c0,1.9-.69,3.19-2.22,3.83l3.69,5.24H164Zm2.55-5.88c0-1.15-.44-1.61-1.84-1.61H158.6v4.5h2.73c1.47,0,1.84-.53,1.84-1.67Z"/><path d="M177.62,15.75a12.56,12.56,0,0,1-4.94-1l.58-2.66a14.7,14.7,0,0,0,4.4.73c1.77,0,2.11-.34,2.11-1.63s-.06-1.54-2.57-2.09c-3.69-.8-4.24-1.54-4.24-4.84C173,1.22,174,0,178.24,0a22.68,22.68,0,0,1,4.63.5l-.34,2.9A23.31,23.31,0,0,0,178.28,3c-1.54,0-1.88.28-1.88,1.4,0,1.47.07,1.49,2.48,2.07,4.13,1,4.34,1.79,4.34,4.79S182.23,15.75,177.62,15.75Z"/><path d="M190.11,18.94l-1.49-.85,1.31-2.57h-1.1V11.71h3.3v4Z"/><path d="M206.49,15.52V.23h3.44V15.52Z"/><path d="M219.53,5.46V15.52h-3.28V.23h4.22l5,10.54V.23h3.28V15.52h-4.25Z"/><path d="M238.09,10.51c0,1.33.43,2.11,2.13,2.11a25.17,25.17,0,0,0,3.95-.36l.48,3a20,20,0,0,1-4.43.49c-3.86,0-5.58-1.91-5.58-4.69V4.68c0-2.78,1.72-4.68,5.58-4.68a20.65,20.65,0,0,1,4.43.48l-.48,3a25.26,25.26,0,0,0-3.95-.37c-1.7,0-2.13.78-2.13,2.11Z"/><path d="M250.4,15.52V11.71h3.3v3.81Z"/></svg>